<svg width="512" height="512" viewBox="0 0 512 512" xmlns="http://www.w3.org/2000/svg">
  <defs>
    <linearGradient id="jp-gradient" x1="0%" y1="0%" x2="100%" y2="100%">
      <stop offset="0%" stop-color="#e0a520"/>
      <stop offset="20%" stop-color="#e8b020"/>
      <stop offset="45%" stop-color="#f0a830"/>
      <stop offset="70%" stop-color="#f09040"/>
      <stop offset="100%" stop-color="#ee8045"/>
    </linearGradient>
  </defs>
  <rect width="512" height="512" rx="96" fill="url(#jp-gradient)"/>
  <path d="M298.88 94.94L298.88 94.94Q299.96 94.94 299.96 97.10Q299.96 99.26 298.88 99.26L298.88 99.26Q289.88 99.26 285.20 101.42Q280.52 103.58 279.08 108.98Q277.64 114.38 277.64 124.82L277.64 124.82L277.64 321.38Q277.64 361.70 257.66 384.38Q237.68 407.06 202.04 407.06L202.04 407.06Q188.72 407.06 179.90 401.48Q171.08 395.90 171.08 385.46L171.08 385.46Q171.08 378.98 175.40 373.04Q179.72 367.10 189.80 367.10L189.80 367.10Q198.44 367.10 203.12 371.96Q207.80 376.82 210.50 383.30Q213.20 389.78 215.54 394.64Q217.88 399.50 222.20 399.50L222.20 399.50Q229.76 399.50 233.36 387.44Q236.96 375.38 236.96 346.58L236.96 346.58L236.96 124.10Q236.96 113.66 234.80 108.44Q232.64 103.22 226.16 101.24Q219.68 99.26 206.72 99.26L206.72 99.26Q206 99.26 206 97.10Q206 94.94 206.72 94.94L206.72 94.94Q217.88 94.94 230.48 95.48Q243.08 96.02 256.76 96.02L256.76 96.02Q269.36 96.02 279.98 95.48Q290.60 94.94 298.88 94.94Z" fill="#ffffff"/>
  <g transform="translate(355.76,78.74)">
    <line x1="0" y1="-37.8" x2="0" y2="37.8" stroke="#ffffff" stroke-width="4.536" opacity="0.9"/>
    <line x1="-37.8" y1="0" x2="37.8" y2="0" stroke="#ffffff" stroke-width="4.536" opacity="0.9"/>
    <line x1="-26.46" y1="-26.46" x2="26.46" y2="26.46" stroke="#ffffff" stroke-width="2.772" opacity="0.65"/>
    <line x1="26.46" y1="-26.46" x2="-26.46" y2="26.46" stroke="#ffffff" stroke-width="2.772" opacity="0.65"/>
    <line x1="-10.08" y1="-36.54" x2="10.08" y2="36.54" stroke="#ffffff" stroke-width="1.512" opacity="0.4"/>
    <line x1="10.08" y1="-36.54" x2="-10.08" y2="36.54" stroke="#ffffff" stroke-width="1.512" opacity="0.4"/>
    <line x1="-36.54" y1="-10.08" x2="36.54" y2="10.08" stroke="#ffffff" stroke-width="1.512" opacity="0.4"/>
    <line x1="-36.54" y1="10.08" x2="36.54" y2="-10.08" stroke="#ffffff" stroke-width="1.512" opacity="0.4"/>
    <circle cx="0" cy="0" r="10.24" fill="#ffffff"/>
  </g>
</svg>
