<svg width="16" height="16" viewBox="0 0 16 16" xmlns="http://www.w3.org/2000/svg">
  <defs>
    <linearGradient id="jp-gradient" x1="0%" y1="0%" x2="100%" y2="100%">
      <stop offset="0%" stop-color="#e0a520"/>
      <stop offset="20%" stop-color="#e8b020"/>
      <stop offset="45%" stop-color="#f0a830"/>
      <stop offset="70%" stop-color="#f09040"/>
      <stop offset="100%" stop-color="#ee8045"/>
    </linearGradient>
  </defs>
  <rect width="16" height="16" rx="3" fill="url(#jp-gradient)"/>
  <path d="M9.82 1.93L9.82 1.93Q9.87 1.93 9.87 2.02Q9.87 2.10 9.82 2.10L9.82 2.10Q9.47 2.10 9.29 2.18Q9.11 2.27 9.05 2.48Q9.00 2.69 9.00 3.09L9.00 3.09L9.00 10.74Q9.00 12.31 8.22 13.19Q7.44 14.07 6.06 14.07L6.06 14.07Q5.54 14.07 5.20 13.85Q4.85 13.64 4.85 13.23L4.85 13.23Q4.85 12.98 5.02 12.75Q5.19 12.52 5.58 12.52L5.58 12.52Q5.92 12.52 6.10 12.70Q6.28 12.89 6.39 13.15Q6.49 13.40 6.58 13.59Q6.67 13.78 6.84 13.78L6.84 13.78Q7.14 13.78 7.28 13.31Q7.42 12.84 7.42 11.72L7.42 11.72L7.42 3.07Q7.42 2.66 7.33 2.46Q7.25 2.25 7.00 2.18Q6.74 2.10 6.24 2.10L6.24 2.10Q6.21 2.10 6.21 2.02Q6.21 1.93 6.24 1.93L6.24 1.93Q6.67 1.93 7.16 1.95Q7.65 1.97 8.19 1.97L8.19 1.97Q8.68 1.97 9.09 1.95Q9.50 1.93 9.82 1.93Z" fill="#ffffff"/>
  <g transform="translate(12.04,1.30)">
    <circle cx="0" cy="0" r="1.2" fill="#ffffff"/>
  </g>
</svg>
