<svg width="192" height="192" viewBox="0 0 192 192" xmlns="http://www.w3.org/2000/svg">
  <defs>
    <linearGradient id="jp-gradient" x1="0%" y1="0%" x2="100%" y2="100%">
      <stop offset="0%" stop-color="#e0a520"/>
      <stop offset="20%" stop-color="#e8b020"/>
      <stop offset="45%" stop-color="#f0a830"/>
      <stop offset="70%" stop-color="#f09040"/>
      <stop offset="100%" stop-color="#ee8045"/>
    </linearGradient>
  </defs>
  <rect width="192" height="192" rx="38" fill="url(#jp-gradient)"/>
  <path d="M112.96 33.31L112.96 33.31Q113.38 33.31 113.38 34.15Q113.38 34.99 112.96 34.99L112.96 34.99Q109.46 34.99 107.64 35.83Q105.82 36.67 105.26 38.77Q104.70 40.87 104.70 44.93L104.70 44.93L104.70 121.37Q104.70 137.05 96.93 145.87Q89.16 154.69 75.30 154.69L75.30 154.69Q70.12 154.69 66.69 152.52Q63.26 150.35 63.26 146.29L63.26 146.29Q63.26 143.77 64.94 141.46Q66.62 139.15 70.54 139.15L70.54 139.15Q73.90 139.15 75.72 141.04Q77.54 142.93 78.59 145.45Q79.64 147.97 80.55 149.86Q81.46 151.75 83.14 151.75L83.14 151.75Q86.08 151.75 87.48 147.06Q88.88 142.37 88.88 131.17L88.88 131.17L88.88 44.65Q88.88 40.59 88.04 38.56Q87.20 36.53 84.68 35.76Q82.16 34.99 77.12 34.99L77.12 34.99Q76.84 34.99 76.84 34.15Q76.84 33.31 77.12 33.31L77.12 33.31Q81.46 33.31 86.36 33.52Q91.26 33.73 96.58 33.73L96.58 33.73Q101.48 33.73 105.61 33.52Q109.74 33.31 112.96 33.31Z" fill="#ffffff"/>
  <g transform="translate(135.08,27.01)">
    <line x1="0" y1="-14.7" x2="0" y2="14.7" stroke="#ffffff" stroke-width="1.764" opacity="0.9"/>
    <line x1="-14.7" y1="0" x2="14.7" y2="0" stroke="#ffffff" stroke-width="1.764" opacity="0.9"/>
    <line x1="-10.29" y1="-10.29" x2="10.29" y2="10.29" stroke="#ffffff" stroke-width="1.078" opacity="0.65"/>
    <line x1="10.29" y1="-10.29" x2="-10.29" y2="10.29" stroke="#ffffff" stroke-width="1.078" opacity="0.65"/>
    <line x1="-3.92" y1="-14.21" x2="3.92" y2="14.21" stroke="#ffffff" stroke-width="0.588" opacity="0.4"/>
    <line x1="3.92" y1="-14.21" x2="-3.92" y2="14.21" stroke="#ffffff" stroke-width="0.588" opacity="0.4"/>
    <circle cx="0" cy="0" r="3.84" fill="#ffffff"/>
  </g>
</svg>
