<svg width="180" height="180" viewBox="0 0 180 180" xmlns="http://www.w3.org/2000/svg">
  <defs>
    <linearGradient id="jp-gradient" x1="0%" y1="0%" x2="100%" y2="100%">
      <stop offset="0%" stop-color="#e0a520"/>
      <stop offset="20%" stop-color="#e8b020"/>
      <stop offset="45%" stop-color="#f0a830"/>
      <stop offset="70%" stop-color="#f09040"/>
      <stop offset="100%" stop-color="#ee8045"/>
    </linearGradient>
  </defs>
  <rect width="180" height="180" rx="36" fill="url(#jp-gradient)"/>
  <path d="M106.03 30.78L106.03 30.78Q106.43 30.78 106.43 31.57Q106.43 32.36 106.03 32.36L106.03 32.36Q102.73 32.36 101.02 33.15Q99.30 33.95 98.77 35.93Q98.24 37.91 98.24 41.73L98.24 41.73L98.24 113.81Q98.24 128.59 90.92 136.91Q83.59 145.22 70.52 145.22L70.52 145.22Q65.64 145.22 62.41 143.18Q59.17 141.13 59.17 137.30L59.17 137.30Q59.17 134.93 60.76 132.75Q62.34 130.57 66.04 130.57L66.04 130.57Q69.20 130.57 70.92 132.35Q72.64 134.13 73.63 136.51Q74.62 138.89 75.47 140.67Q76.33 142.45 77.92 142.45L77.92 142.45Q80.69 142.45 82.01 138.03Q83.33 133.61 83.33 123.05L83.33 123.05L83.33 41.47Q83.33 37.64 82.54 35.73Q81.74 33.81 79.37 33.09Q76.99 32.36 72.24 32.36L72.24 32.36Q71.98 32.36 71.98 31.57Q71.98 30.78 72.24 30.78L72.24 30.78Q76.33 30.78 80.95 30.98Q85.57 31.17 90.59 31.17L90.59 31.17Q95.21 31.17 99.10 30.98Q103.00 30.78 106.03 30.78Z" fill="#ffffff"/>
  <g transform="translate(126.89,24.84)">
    <line x1="0" y1="-13.86" x2="0" y2="13.86" stroke="#ffffff" stroke-width="1.663" opacity="0.9"/>
    <line x1="-13.86" y1="0" x2="13.86" y2="0" stroke="#ffffff" stroke-width="1.663" opacity="0.9"/>
    <line x1="-9.702" y1="-9.702" x2="9.702" y2="9.702" stroke="#ffffff" stroke-width="1.016" opacity="0.65"/>
    <line x1="9.702" y1="-9.702" x2="-9.702" y2="9.702" stroke="#ffffff" stroke-width="1.016" opacity="0.65"/>
    <line x1="-3.696" y1="-13.398" x2="3.696" y2="13.398" stroke="#ffffff" stroke-width="0.554" opacity="0.4"/>
    <line x1="3.696" y1="-13.398" x2="-3.696" y2="13.398" stroke="#ffffff" stroke-width="0.554" opacity="0.4"/>
    <circle cx="0" cy="0" r="3.6" fill="#ffffff"/>
  </g>
</svg>
