<svg width="32" height="32" viewBox="0 0 32 32" xmlns="http://www.w3.org/2000/svg">
  <defs>
    <linearGradient id="jp-gradient" x1="0%" y1="0%" x2="100%" y2="100%">
      <stop offset="0%" stop-color="#e0a520"/>
      <stop offset="20%" stop-color="#e8b020"/>
      <stop offset="45%" stop-color="#f0a830"/>
      <stop offset="70%" stop-color="#f09040"/>
      <stop offset="100%" stop-color="#ee8045"/>
    </linearGradient>
  </defs>
  <rect width="32" height="32" rx="6" fill="url(#jp-gradient)"/>
  <path d="M19.30 4.73L19.30 4.73Q19.37 4.73 19.37 4.88Q19.37 5.04 19.30 5.04L19.30 5.04Q18.65 5.04 18.31 5.20Q17.97 5.35 17.87 5.74Q17.76 6.13 17.76 6.89L17.76 6.89L17.76 21.08Q17.76 24.00 16.32 25.63Q14.88 27.27 12.30 27.27L12.30 27.27Q11.34 27.27 10.70 26.87Q10.07 26.46 10.07 25.71L10.07 25.71Q10.07 25.24 10.38 24.81Q10.69 24.38 11.42 24.38L11.42 24.38Q12.04 24.38 12.38 24.74Q12.72 25.09 12.91 25.55Q13.11 26.02 13.28 26.37Q13.45 26.73 13.76 26.73L13.76 26.73Q14.30 26.73 14.56 25.85Q14.82 24.98 14.82 22.90L14.82 22.90L14.82 6.83Q14.82 6.08 14.67 5.70Q14.51 5.33 14.04 5.18Q13.58 5.04 12.64 5.04L12.64 5.04Q12.59 5.04 12.59 4.88Q12.59 4.73 12.64 4.73L12.64 4.73Q13.45 4.73 14.36 4.77Q15.27 4.81 16.25 4.81L16.25 4.81Q17.16 4.81 17.93 4.77Q18.70 4.73 19.30 4.73Z" fill="#ffffff"/>
  <g transform="translate(23.40,3.56)">
    <line x1="0" y1="-2.73" x2="0" y2="2.73" stroke="#ffffff" stroke-width="1.4" opacity="0.9"/>
    <line x1="-2.73" y1="0" x2="2.73" y2="0" stroke="#ffffff" stroke-width="1.4" opacity="0.9"/>
    <line x1="-1.911" y1="-1.911" x2="1.911" y2="1.911" stroke="#ffffff" stroke-width="0.9" opacity="0.65"/>
    <line x1="1.911" y1="-1.911" x2="-1.911" y2="1.911" stroke="#ffffff" stroke-width="0.9" opacity="0.65"/>
    <circle cx="0" cy="0" r="1" fill="#ffffff"/>
  </g>
</svg>
