<svg width="200" height="180" viewBox="0 0 200 180" xmlns="http://www.w3.org/2000/svg">
  <path d="M107.68 28L107.68 28Q108.16 28 108.16 28.96Q108.16 29.92 107.68 29.92L107.68 29.92Q103.68 29.92 101.60 30.88Q99.52 31.84 98.88 34.24Q98.24 36.64 98.24 41.28L98.24 41.28L98.24 128.64Q98.24 146.56 89.36 156.64Q80.48 166.72 64.64 166.72L64.64 166.72Q58.72 166.72 54.80 164.24Q50.88 161.76 50.88 157.12L50.88 157.12Q50.88 154.24 52.80 151.60Q54.72 148.96 59.20 148.96L59.20 148.96Q63.04 148.96 65.12 151.12Q67.20 153.28 68.40 156.16Q69.60 159.04 70.64 161.20Q71.68 163.36 73.60 163.36L73.60 163.36Q76.96 163.36 78.56 158Q80.16 152.64 80.16 139.84L80.16 139.84L80.16 40.96Q80.16 36.32 79.20 34Q78.24 31.68 75.36 30.80Q72.48 29.92 66.72 29.92L66.72 29.92Q66.40 29.92 66.40 28.96Q66.40 28 66.72 28L66.72 28Q71.68 28 77.28 28.24Q82.88 28.48 88.96 28.48L88.96 28.48Q94.56 28.48 99.28 28.24Q104 28 107.68 28Z" fill="#ffffff"/>
  <g transform="translate(158,18)">
    <line x1="0" y1="-15" x2="0" y2="15" stroke="#ffffff" stroke-width="1.8" opacity="0.9"/>
    <line x1="-15" y1="0" x2="15" y2="0" stroke="#ffffff" stroke-width="1.8" opacity="0.9"/>
    <line x1="-10.5" y1="-10.5" x2="10.5" y2="10.5" stroke="#ffffff" stroke-width="1.1" opacity="0.65"/>
    <line x1="10.5" y1="-10.5" x2="-10.5" y2="10.5" stroke="#ffffff" stroke-width="1.1" opacity="0.65"/>
    <line x1="-4" y1="-14.5" x2="4" y2="14.5" stroke="#ffffff" stroke-width="0.6" opacity="0.4"/>
    <line x1="4" y1="-14.5" x2="-4" y2="14.5" stroke="#ffffff" stroke-width="0.6" opacity="0.4"/>
    <line x1="-14.5" y1="-4" x2="14.5" y2="4" stroke="#ffffff" stroke-width="0.6" opacity="0.4"/>
    <line x1="-14.5" y1="4" x2="14.5" y2="-4" stroke="#ffffff" stroke-width="0.6" opacity="0.4"/>
    <circle cx="0" cy="0" r="2.8" fill="#ffffff"/>
  </g>
</svg>
