<svg width="372" height="48" viewBox="0 0 372 48" xmlns="http://www.w3.org/2000/svg">
  <path d="M4.59 34L3.63 34L3.63 25.30L4.59 25.30L4.59 34ZM7.74 25.93L0.48 25.93L0.48 25.06L7.74 25.06L7.74 25.93ZM15.31 34L14.36 34L14.36 25.06L15.31 25.06L15.31 34ZM21.17 34L20.22 34L20.22 25.06L21.17 25.06L21.17 34ZM20.48 29.81L14.98 29.81L14.98 28.94L20.48 28.94L20.48 29.81ZM29.41 34L28.46 34L28.46 25.06L29.41 25.06L29.41 34ZM34.35 34L29.08 34L29.08 33.13L34.35 33.13L34.35 34ZM33.93 29.84L29.08 29.84L29.08 28.99L33.93 28.99L33.93 29.84ZM34.27 25.93L29.08 25.93L29.08 25.06L34.27 25.06L34.27 25.93Z" fill="#ff9050"/>
  <path d="M68.52 9.75L68.52 9.75Q68.64 9.75 68.64 10.00Q68.64 10.25 68.52 10.25L68.52 10.25Q67.47 10.25 66.92 10.51Q66.37 10.76 66.21 11.39Q66.04 12.02 66.04 13.24L66.04 13.24L66.04 36.17Q66.04 40.87 63.71 43.52Q61.38 46.16 57.22 46.16L57.22 46.16Q55.66 46.16 54.63 45.51Q53.61 44.86 53.61 43.64L53.61 43.64Q53.61 42.89 54.11 42.20Q54.61 41.50 55.79 41.50L55.79 41.50Q56.80 41.50 57.34 42.07Q57.89 42.64 58.20 43.39Q58.52 44.15 58.79 44.72Q59.07 45.28 59.57 45.28L59.57 45.28Q60.45 45.28 60.87 43.88Q61.29 42.47 61.29 39.11L61.29 39.11L61.29 13.15Q61.29 11.93 61.04 11.32Q60.79 10.72 60.03 10.48Q59.28 10.25 57.76 10.25L57.76 10.25Q57.68 10.25 57.68 10.00Q57.68 9.75 57.76 9.75L57.76 9.75Q59.07 9.75 60.54 9.81Q62.01 9.88 63.60 9.88L63.60 9.88Q65.07 9.88 66.31 9.81Q67.55 9.75 68.52 9.75ZM93.44 26.38L80.42 26.38L81.05 25.21L93.15 25.21L93.44 26.38ZM103.35 35.50L103.35 35.50Q103.56 35.50 103.56 35.75Q103.56 36 103.35 36L103.35 36Q102.09 36 100.73 35.92Q99.36 35.83 98.10 35.83L98.10 35.83Q96.67 35.83 95.62 35.92Q94.57 36 93.27 36L93.27 36Q93.10 36 93.10 35.75Q93.10 35.50 93.27 35.50L93.27 35.50Q94.99 35.50 95.27 34.80Q95.54 34.11 94.49 32.05L94.49 32.05L85.96 15.21L88.02 11.60L79.66 30.04Q78.53 32.56 79.62 34.03Q80.71 35.50 83.07 35.50L83.07 35.50Q83.28 35.50 83.28 35.75Q83.28 36 83.07 36L83.07 36Q81.81 36 80.76 35.92Q79.71 35.83 78.11 35.83L78.11 35.83Q76.47 35.83 75.48 35.92Q74.50 36 73.07 36L73.07 36Q72.90 36 72.90 35.75Q72.90 35.50 73.07 35.50L73.07 35.50Q74.20 35.50 75.02 35.01Q75.84 34.53 76.66 33.25Q77.48 31.97 78.53 29.62L78.53 29.62L87.64 9.58Q87.69 9.46 88.02 9.43Q88.36 9.41 88.40 9.58L88.40 9.58L98.90 30.25Q99.91 32.22 100.64 33.38Q101.38 34.53 102.03 35.01Q102.68 35.50 103.35 35.50ZM124.24 9.29L124.24 9.29Q125.50 9.29 126.87 9.41Q128.23 9.54 129.45 9.79Q130.67 10.04 131.51 10.42L131.51 10.42Q131.89 10.55 131.99 10.74Q132.10 10.93 132.14 11.39L132.14 11.39L132.69 17.23Q132.69 17.35 132.48 17.39Q132.27 17.44 132.18 17.27L132.18 17.27Q131.01 13.87 128.84 12.02Q126.68 10.17 123.57 10.17L123.57 10.17Q120.72 10.17 118.47 11.70Q116.22 13.24 114.94 16.05Q113.66 18.86 113.66 22.77L113.66 22.77Q113.66 25.71 114.42 28.08Q115.17 30.46 116.56 32.14Q117.94 33.82 119.83 34.72Q121.72 35.62 123.99 35.62L123.99 35.62Q126.97 35.62 128.93 34.01Q130.88 32.39 132.60 28.86L132.60 28.86Q132.69 28.73 132.88 28.78Q133.06 28.82 133.06 28.94L133.06 28.94L132.43 34.15Q132.39 34.66 132.29 34.80Q132.18 34.95 131.80 35.12L131.80 35.12Q129.79 35.83 127.79 36.17Q125.80 36.50 123.99 36.50L123.99 36.50Q119.46 36.50 115.93 34.80Q112.40 33.10 110.38 30.06Q108.37 27.01 108.37 23.06L108.37 23.06Q108.37 20.04 109.56 17.50Q110.76 14.96 112.92 13.13Q115.09 11.30 117.99 10.30Q120.88 9.29 124.24 9.29ZM142.24 32.60L142.24 32.60L142.24 13.15Q142.24 11.93 142.03 11.32Q141.82 10.72 141.17 10.48Q140.52 10.25 139.26 10.25L139.26 10.25Q139.13 10.25 139.13 10.00Q139.13 9.75 139.26 9.75L139.26 9.75Q140.35 9.75 141.69 9.81Q143.04 9.88 144.55 9.88L144.55 9.88Q146.14 9.88 147.49 9.81Q148.83 9.75 149.88 9.75L149.88 9.75Q150.01 9.75 150.01 10.00Q150.01 10.25 149.88 10.25L149.88 10.25Q148.62 10.25 147.99 10.51Q147.36 10.76 147.13 11.39Q146.90 12.02 146.90 13.24L146.90 13.24L146.90 32.60Q146.90 33.82 147.11 34.45Q147.32 35.08 147.95 35.29Q148.58 35.50 149.88 35.50L149.88 35.50Q150.05 35.50 150.05 35.75Q150.05 36 149.88 36L149.88 36Q148.79 36 147.47 35.96Q146.14 35.92 144.55 35.92L144.55 35.92Q143.04 35.92 141.65 35.96Q140.26 36 139.17 36L139.17 36Q139.09 36 139.09 35.75Q139.09 35.50 139.17 35.50L139.17 35.50Q140.47 35.50 141.13 35.29Q141.78 35.08 142.01 34.45Q142.24 33.82 142.24 32.60ZM153.33 29.91L153.33 29.91L147.57 22.14L150.93 18.91L157.36 27.56Q159.00 29.87 160.13 31.36Q161.26 32.85 162.04 33.71Q162.82 34.57 163.41 34.95Q163.99 35.33 164.56 35.41Q165.13 35.50 165.80 35.50L165.80 35.50Q165.93 35.50 165.93 35.75Q165.93 36 165.80 36L165.80 36Q163.95 36 162.82 36Q161.68 36 161.10 36L161.10 36Q160.47 36 160.00 36.04Q159.54 36.08 159.21 36.08L159.21 36.08Q158.66 36.08 158.24 35.87Q157.82 35.66 157.25 35.03Q156.69 34.40 155.76 33.19Q154.84 31.97 153.33 29.91ZM145.09 25.29L143.96 25.16L154.80 14.08Q156.35 12.52 155.95 11.39Q155.55 10.25 153.45 10.25L153.45 10.25Q153.33 10.25 153.33 10.00Q153.33 9.75 153.45 9.75L153.45 9.75Q154.59 9.75 155.76 9.81Q156.94 9.88 158.87 9.88L158.87 9.88Q160.89 9.88 162.06 9.81Q163.24 9.75 164.33 9.75L164.33 9.75Q164.46 9.75 164.46 10.00Q164.46 10.25 164.33 10.25L164.33 10.25Q162.40 10.25 160.09 11.37Q157.78 12.48 155.89 14.33L155.89 14.33L145.09 25.29ZM177.49 13.24L177.49 32.43Q177.49 33.69 177.77 34.34Q178.04 34.99 178.92 35.24Q179.80 35.50 181.53 35.50L181.53 35.50Q181.65 35.50 181.65 35.75Q181.65 36 181.53 36L181.53 36Q180.18 36 178.61 35.96Q177.03 35.92 175.18 35.92L175.18 35.92Q173.67 35.92 172.31 35.96Q170.94 36 169.85 36L169.85 36Q169.72 36 169.72 35.75Q169.72 35.50 169.85 35.50L169.85 35.50Q171.15 35.50 171.78 35.29Q172.41 35.08 172.62 34.45Q172.83 33.82 172.83 32.60L172.83 32.60L172.83 13.15Q172.83 11.93 172.62 11.32Q172.41 10.72 171.78 10.48Q171.15 10.25 169.85 10.25L169.85 10.25Q169.72 10.25 169.72 10.00Q169.72 9.75 169.85 9.75L169.85 9.75Q170.94 9.75 172.29 9.81Q173.63 9.88 175.14 9.88L175.14 9.88Q176.15 9.88 177.79 9.75Q179.43 9.62 180.85 9.62L180.85 9.62Q183.50 9.62 185.54 10.32Q187.57 11.01 188.79 12.52Q190.01 14.03 190.09 16.51L190.09 16.51Q190.18 18.65 189.40 20.25Q188.62 21.85 187.26 22.90Q185.89 23.95 184.23 24.47Q182.58 25.00 180.94 25.00L180.94 25.00Q180.52 25.00 179.99 24.95Q179.47 24.91 178.96 24.79L178.96 24.79Q178.84 24.74 178.88 24.47Q178.92 24.20 179.09 24.24L179.09 24.24Q179.43 24.32 179.85 24.37Q180.27 24.41 180.52 24.41L180.52 24.41Q181.74 24.41 182.74 23.65Q183.75 22.90 184.38 21.34Q185.01 19.79 185.01 17.48L185.01 17.48Q185.01 15.25 184.38 13.72Q183.75 12.19 182.53 11.37Q181.32 10.55 179.51 10.55L179.51 10.55Q178.75 10.55 178.31 10.76Q177.87 10.97 177.68 11.56Q177.49 12.14 177.49 13.24L177.49 13.24ZM210.02 36.50L210.02 36.50Q207.00 36.50 204.54 35.43Q202.08 34.36 200.34 32.47Q198.60 30.58 197.65 28.13Q196.71 25.67 196.71 22.90L196.71 22.90Q196.71 19.49 198.03 16.93Q199.35 14.37 201.54 12.67Q203.72 10.97 206.32 10.13Q208.93 9.29 211.49 9.29L211.49 9.29Q214.60 9.29 217.06 10.40Q219.51 11.51 221.23 13.40Q222.96 15.29 223.86 17.69Q224.76 20.08 224.76 22.60L224.76 22.60Q224.76 25.54 223.59 28.06Q222.41 30.58 220.37 32.47Q218.34 34.36 215.67 35.43Q213.00 36.50 210.02 36.50ZM211.41 35.45L211.41 35.45Q213.76 35.45 215.61 34.11Q217.45 32.77 218.53 30.16Q219.60 27.56 219.60 23.82L219.60 23.82Q219.60 19.96 218.42 16.93Q217.24 13.91 215.06 12.16Q212.88 10.42 209.81 10.42L209.81 10.42Q205.99 10.42 203.93 13.32Q201.87 16.22 201.87 21.34L201.87 21.34Q201.87 24.41 202.59 26.99Q203.30 29.57 204.58 31.48Q205.86 33.40 207.60 34.42Q209.35 35.45 211.41 35.45ZM239.14 10.72L239.14 10.72Q236.58 10.72 234.80 12.42Q233.01 14.12 231.96 17.23L231.96 17.23Q231.92 17.35 231.71 17.33Q231.50 17.31 231.50 17.18L231.50 17.18Q231.58 16.60 231.67 15.52Q231.75 14.45 231.86 13.19Q231.96 11.93 232.03 10.76Q232.09 9.58 232.09 8.83L232.09 8.83Q232.09 8.62 232.32 8.62Q232.55 8.62 232.55 8.83L232.55 8.83Q232.55 9.25 232.99 9.43Q233.43 9.62 234.00 9.69Q234.57 9.75 234.94 9.75L234.94 9.75Q238.56 9.88 243.39 9.88L243.39 9.88Q246.33 9.88 248.09 9.81Q249.85 9.75 251.49 9.75L251.49 9.75Q253.00 9.75 253.78 9.56Q254.56 9.37 254.77 8.70L254.77 8.70Q254.81 8.53 255.04 8.53Q255.27 8.53 255.27 8.70L255.27 8.70Q255.19 9.37 255.13 10.57Q255.06 11.77 255.00 13.09Q254.94 14.41 254.89 15.52Q254.85 16.64 254.85 17.18L254.85 17.18Q254.85 17.31 254.64 17.31Q254.43 17.31 254.39 17.18L254.39 17.18Q253.76 13.87 252.02 12.29Q250.27 10.72 247.80 10.72L247.80 10.72Q246.96 10.72 246.51 10.95Q246.07 11.18 245.93 11.72Q245.78 12.27 245.78 13.24L245.78 13.24L245.78 32.60Q245.78 33.82 246.03 34.45Q246.28 35.08 247.02 35.29Q247.75 35.50 249.27 35.50L249.27 35.50Q249.39 35.50 249.39 35.75Q249.39 36 249.27 36L249.27 36Q248.09 36 246.62 35.96Q245.15 35.92 243.39 35.92L243.39 35.92Q241.71 35.92 240.24 35.96Q238.77 36 237.55 36L237.55 36Q237.42 36 237.42 35.75Q237.42 35.50 237.55 35.50L237.55 35.50Q239.02 35.50 239.77 35.29Q240.53 35.08 240.80 34.45Q241.08 33.82 241.08 32.60L241.08 32.60L241.08 13.15Q241.08 12.23 240.93 11.70Q240.78 11.18 240.36 10.95Q239.94 10.72 239.14 10.72Z" fill="#d4a930"/>
  <g transform="translate(269,28)"><line x1="0" y1="-3" x2="0" y2="3" stroke="#d4a930" stroke-width="0.6" opacity="0.5"/><line x1="-3" y1="0" x2="3" y2="0" stroke="#d4a930" stroke-width="0.6" opacity="0.5"/><circle cx="0" cy="0" r="0.8" fill="#ff9050" opacity="0.7"/></g>
  <path d="M288.59 34.12L288.59 34.12Q287.69 34.12 286.92 33.79Q286.15 33.46 285.58 32.87Q285.01 32.28 284.70 31.50Q284.39 30.72 284.39 29.84L284.39 29.84Q284.39 28.94 284.70 28.16Q285.01 27.38 285.58 26.79Q286.15 26.21 286.92 25.88Q287.68 25.55 288.58 25.55L288.58 25.55Q289.56 25.55 290.31 25.89Q291.05 26.22 291.63 26.80L291.63 26.80L290.85 27.58Q290.45 27.14 289.88 26.88Q289.31 26.63 288.58 26.63L288.58 26.63Q287.92 26.63 287.37 26.87Q286.81 27.10 286.41 27.53Q286.00 27.96 285.78 28.55Q285.55 29.14 285.55 29.84L285.55 29.84Q285.55 30.53 285.78 31.12Q286.00 31.71 286.41 32.14Q286.81 32.57 287.37 32.81Q287.92 33.04 288.58 33.04L288.58 33.04Q289.36 33.04 289.93 32.78Q290.51 32.52 290.91 32.08L290.91 32.08L291.69 32.85Q291.11 33.45 290.34 33.78Q289.56 34.12 288.59 34.12ZM298.19 34L297.07 34L297.07 25.67L298.19 25.67L298.19 34ZM303.57 34L302.44 34L302.44 25.67L303.57 25.67L303.57 34ZM302.72 30.21L297.83 30.21L297.83 29.18L302.72 29.18L302.72 30.21ZM310.67 34L309.54 34L309.54 25.67L310.67 25.67L310.67 34ZM320.41 34.12L320.41 34.12Q319.51 34.12 318.75 33.79Q317.98 33.46 317.41 32.87Q316.84 32.28 316.53 31.50Q316.21 30.72 316.21 29.84L316.21 29.84Q316.21 28.94 316.53 28.16Q316.84 27.38 317.41 26.79Q317.98 26.21 318.74 25.88Q319.50 25.55 320.40 25.55L320.40 25.55Q321.39 25.55 322.13 25.89Q322.87 26.22 323.45 26.80L323.45 26.80L322.67 27.58Q322.27 27.14 321.70 26.88Q321.13 26.63 320.40 26.63L320.40 26.63Q319.74 26.63 319.19 26.87Q318.64 27.10 318.23 27.53Q317.82 27.96 317.60 28.55Q317.38 29.14 317.38 29.84L317.38 29.84Q317.38 30.53 317.60 31.12Q317.82 31.71 318.23 32.14Q318.64 32.57 319.19 32.81Q319.74 33.04 320.40 33.04L320.40 33.04Q321.18 33.04 321.76 32.78Q322.33 32.52 322.73 32.08L322.73 32.08L323.51 32.85Q322.93 33.45 322.16 33.78Q321.39 34.12 320.41 34.12ZM329.48 34L328.28 34L331.69 25.67L332.50 25.67L335.90 34L334.67 34L331.88 26.96L332.30 26.96L329.48 34ZM334.28 32.12L329.90 32.12L329.90 31.13L334.28 31.13L334.28 32.12ZM345.01 34.12L345.01 34.12Q344.13 34.12 343.37 33.79Q342.61 33.46 342.04 32.87Q341.47 32.28 341.15 31.50Q340.82 30.72 340.82 29.82L340.82 29.82Q340.82 28.92 341.15 28.15Q341.47 27.38 342.05 26.79Q342.62 26.20 343.40 25.88Q344.17 25.55 345.08 25.55L345.08 25.55Q346.08 25.55 346.92 25.94Q347.76 26.32 348.32 27.04L348.32 27.04L347.54 27.82Q347.15 27.24 346.50 26.94Q345.85 26.63 345.08 26.63L345.08 26.63Q344.17 26.63 343.47 27.04Q342.77 27.45 342.38 28.17Q341.99 28.89 341.99 29.82L341.99 29.82Q341.99 30.77 342.38 31.49Q342.78 32.21 343.45 32.62Q344.12 33.03 344.99 33.03L344.99 33.03Q345.86 33.03 346.50 32.69Q347.15 32.36 347.49 31.70Q347.84 31.05 347.84 30.10L347.84 30.10L348.53 30.59L344.93 30.59L344.93 29.56L349.01 29.56L349.01 29.73Q349.01 31.18 348.50 32.16Q347.99 33.14 347.08 33.63Q346.17 34.12 345.01 34.12ZM358.31 34.12L358.31 34.12Q357.42 34.12 356.65 33.79Q355.89 33.46 355.31 32.87Q354.73 32.27 354.42 31.49Q354.10 30.71 354.10 29.82L354.10 29.82Q354.10 28.92 354.42 28.15Q354.73 27.38 355.30 26.79Q355.87 26.20 356.64 25.88Q357.40 25.55 358.29 25.55L358.29 25.55Q359.17 25.55 359.94 25.88Q360.70 26.20 361.27 26.79Q361.85 27.38 362.17 28.16Q362.50 28.94 362.50 29.84L362.50 29.84Q362.50 30.72 362.17 31.50Q361.85 32.28 361.28 32.87Q360.71 33.46 359.95 33.79Q359.19 34.12 358.31 34.12ZM358.29 33.04L358.29 33.04Q359.19 33.04 359.86 32.63Q360.54 32.21 360.94 31.49Q361.33 30.76 361.33 29.82L361.33 29.82Q361.33 29.13 361.11 28.55Q360.88 27.96 360.47 27.53Q360.06 27.10 359.51 26.87Q358.96 26.63 358.29 26.63L358.29 26.63Q357.40 26.63 356.72 27.04Q356.04 27.45 355.65 28.17Q355.26 28.89 355.26 29.82L355.26 29.82Q355.26 30.52 355.48 31.11Q355.71 31.71 356.11 32.13Q356.51 32.56 357.07 32.80Q357.63 33.04 358.29 33.04Z" fill="#a08840"/>
</svg>
