<svg width="600" height="180" viewBox="0 0 600 180" xmlns="http://www.w3.org/2000/svg">
  <path d="M8.94 38L7.91 38L7.91 28.63L8.94 28.63L8.94 38ZM12.33 29.31L4.52 29.31L4.52 28.37L12.33 28.37L12.33 29.31ZM22.10 38L21.08 38L21.08 28.37L22.10 28.37L22.10 38ZM28.42 38L27.39 38L27.39 28.37L28.42 28.37L28.42 38ZM27.67 33.49L21.75 33.49L21.75 32.55L27.67 32.55L27.67 33.49ZM38.90 38L37.88 38L37.88 28.37L38.90 28.37L38.90 38ZM44.22 38L38.55 38L38.55 37.06L44.22 37.06L44.22 38ZM43.77 33.52L38.55 33.52L38.55 32.61L43.77 32.61L43.77 33.52ZM44.14 29.31L38.55 29.31L38.55 28.37L44.14 28.37L44.14 29.31Z" fill="#ff9050"/>
  <path d="M25.03 65.50L25.03 65.50Q25.28 65.50 25.28 66.00Q25.28 66.51 25.03 66.51L25.03 66.51Q22.93 66.51 21.84 67.01Q20.75 67.52 20.41 68.78Q20.08 70.04 20.08 72.47L20.08 72.47L20.08 118.34Q20.08 127.74 15.41 133.04Q10.75 138.33 2.44 138.33L2.44 138.33Q-0.67 138.33-2.73 137.03Q-4.79 135.72-4.79 133.29L-4.79 133.29Q-4.79 131.78-3.78 130.39Q-2.77 129.00-0.42 129.00L-0.42 129.00Q1.60 129.00 2.69 130.14Q3.78 131.27 4.41 132.78Q5.04 134.30 5.59 135.43Q6.13 136.56 7.14 136.56L7.14 136.56Q8.90 136.56 9.74 133.75Q10.58 130.94 10.58 124.22L10.58 124.22L10.58 72.30Q10.58 69.87 10.08 68.65Q9.58 67.43 8.06 66.97Q6.55 66.51 3.53 66.51L3.53 66.51Q3.36 66.51 3.36 66.00Q3.36 65.50 3.53 65.50L3.53 65.50Q6.13 65.50 9.07 65.63Q12.01 65.75 15.20 65.75L15.20 65.75Q18.14 65.75 20.62 65.63Q23.10 65.50 25.03 65.50ZM72.88 98.76L46.84 98.76L48.10 96.41L72.29 96.41L72.88 98.76ZM92.70 116.99L92.70 116.99Q93.12 116.99 93.12 117.50Q93.12 118 92.70 118L92.70 118Q90.18 118 87.45 117.83Q84.72 117.66 82.20 117.66L82.20 117.66Q79.35 117.66 77.25 117.83Q75.15 118 72.54 118L72.54 118Q72.21 118 72.21 117.50Q72.21 116.99 72.54 116.99L72.54 116.99Q75.99 116.99 76.53 115.61Q77.08 114.22 74.98 110.10L74.98 110.10L57.93 76.42L62.04 69.20L45.33 106.07Q43.06 111.11 45.24 114.05Q47.43 116.99 52.13 116.99L52.13 116.99Q52.55 116.99 52.55 117.50Q52.55 118 52.13 118L52.13 118Q49.61 118 47.51 117.83Q45.41 117.66 42.22 117.66L42.22 117.66Q38.94 117.66 36.97 117.83Q35.00 118 32.14 118L32.14 118Q31.80 118 31.80 117.50Q31.80 116.99 32.14 116.99L32.14 116.99Q34.41 116.99 36.05 116.03Q37.68 115.06 39.32 112.50Q40.96 109.94 43.06 105.23L43.06 105.23L61.29 65.16Q61.37 64.91 62.04 64.87Q62.72 64.83 62.80 65.16L62.80 65.16L83.80 106.49Q85.82 110.44 87.29 112.75Q88.76 115.06 90.06 116.03Q91.36 116.99 92.70 116.99ZM132.49 64.58L132.49 64.58Q135.01 64.58 137.74 64.83Q140.47 65.08 142.90 65.58Q145.34 66.09 147.02 66.84L147.02 66.84Q147.78 67.10 147.99 67.47Q148.20 67.85 148.28 68.78L148.28 68.78L149.37 80.45Q149.37 80.70 148.95 80.79Q148.53 80.87 148.36 80.54L148.36 80.54Q146.01 73.73 141.69 70.04Q137.36 66.34 131.14 66.34L131.14 66.34Q125.43 66.34 120.94 69.41Q116.44 72.47 113.88 78.10Q111.32 83.73 111.32 91.54L111.32 91.54Q111.32 97.42 112.83 102.17Q114.34 106.91 117.12 110.27Q119.89 113.63 123.67 115.44Q127.45 117.24 131.98 117.24L131.98 117.24Q137.95 117.24 141.85 114.01Q145.76 110.78 149.20 103.72L149.20 103.72Q149.37 103.47 149.75 103.55Q150.13 103.64 150.13 103.89L150.13 103.89L148.87 114.30Q148.78 115.31 148.57 115.61Q148.36 115.90 147.61 116.24L147.61 116.24Q143.58 117.66 139.59 118.34Q135.60 119.01 131.98 119.01L131.98 119.01Q122.91 119.01 115.86 115.61Q108.80 112.20 104.77 106.11Q100.74 100.02 100.74 92.13L100.74 92.13Q100.74 86.08 103.13 81.00Q105.52 75.92 109.85 72.26Q114.18 68.61 119.97 66.59Q125.77 64.58 132.49 64.58ZM166.48 111.20L166.48 111.20L166.48 72.30Q166.48 69.87 166.06 68.65Q165.64 67.43 164.33 66.97Q163.03 66.51 160.51 66.51L160.51 66.51Q160.26 66.51 160.26 66.00Q160.26 65.50 160.51 65.50L160.51 65.50Q162.70 65.50 165.38 65.63Q168.07 65.75 171.10 65.75L171.10 65.75Q174.29 65.75 176.98 65.63Q179.66 65.50 181.76 65.50L181.76 65.50Q182.02 65.50 182.02 66.00Q182.02 66.51 181.76 66.51L181.76 66.51Q179.24 66.51 177.98 67.01Q176.72 67.52 176.26 68.78Q175.80 70.04 175.80 72.47L175.80 72.47L175.80 111.20Q175.80 113.63 176.22 114.89Q176.64 116.15 177.90 116.57Q179.16 116.99 181.76 116.99L181.76 116.99Q182.10 116.99 182.10 117.50Q182.10 118 181.76 118L181.76 118Q179.58 118 176.93 117.92Q174.29 117.83 171.10 117.83L171.10 117.83Q168.07 117.83 165.30 117.92Q162.53 118 160.34 118L160.34 118Q160.18 118 160.18 117.50Q160.18 116.99 160.34 116.99L160.34 116.99Q162.95 116.99 164.25 116.57Q165.55 116.15 166.01 114.89Q166.48 113.63 166.48 111.20ZM188.65 105.82L188.65 105.82L177.14 90.28L183.86 83.81L196.72 101.12Q199.99 105.74 202.26 108.72Q204.53 111.70 206.08 113.42Q207.64 115.14 208.81 115.90Q209.99 116.66 211.12 116.82Q212.26 116.99 213.60 116.99L213.60 116.99Q213.85 116.99 213.85 117.50Q213.85 118 213.60 118L213.60 118Q209.90 118 207.64 118Q205.37 118 204.19 118L204.19 118Q202.93 118 202.01 118.08Q201.08 118.17 200.41 118.17L200.41 118.17Q199.32 118.17 198.48 117.75Q197.64 117.33 196.51 116.07Q195.37 114.81 193.52 112.37Q191.68 109.94 188.65 105.82ZM172.19 96.58L169.92 96.33L191.59 74.15Q194.70 71.04 193.90 68.78Q193.10 66.51 188.90 66.51L188.90 66.51Q188.65 66.51 188.65 66.00Q188.65 65.50 188.90 65.50L188.90 65.50Q191.17 65.50 193.52 65.63Q195.88 65.75 199.74 65.75L199.74 65.75Q203.77 65.75 206.12 65.63Q208.48 65.50 210.66 65.50L210.66 65.50Q210.91 65.50 210.91 66.00Q210.91 66.51 210.66 66.51L210.66 66.51Q206.80 66.51 202.18 68.73Q197.56 70.96 193.78 74.66L193.78 74.66L172.19 96.58ZM234.99 72.47L234.99 110.86Q234.99 113.38 235.53 114.68Q236.08 115.98 237.84 116.49Q239.61 116.99 243.05 116.99L243.05 116.99Q243.30 116.99 243.30 117.50Q243.30 118 243.05 118L243.05 118Q240.36 118 237.21 117.92Q234.06 117.83 230.37 117.83L230.37 117.83Q227.34 117.83 224.61 117.92Q221.88 118 219.70 118L219.70 118Q219.45 118 219.45 117.50Q219.45 116.99 219.70 116.99L219.70 116.99Q222.30 116.99 223.56 116.57Q224.82 116.15 225.24 114.89Q225.66 113.63 225.66 111.20L225.66 111.20L225.66 72.30Q225.66 69.87 225.24 68.65Q224.82 67.43 223.56 66.97Q222.30 66.51 219.70 66.51L219.70 66.51Q219.45 66.51 219.45 66.00Q219.45 65.50 219.70 65.50L219.70 65.50Q221.88 65.50 224.57 65.63Q227.26 65.75 230.28 65.75L230.28 65.75Q232.30 65.75 235.58 65.50Q238.85 65.25 241.71 65.25L241.71 65.25Q247.00 65.25 251.07 66.63Q255.15 68.02 257.58 71.04Q260.02 74.07 260.19 79.02L260.19 79.02Q260.36 83.31 258.80 86.50Q257.25 89.69 254.52 91.79Q251.79 93.89 248.47 94.94Q245.15 95.99 241.88 95.99L241.88 95.99Q241.04 95.99 239.99 95.91Q238.94 95.82 237.93 95.57L237.93 95.57Q237.68 95.49 237.76 94.94Q237.84 94.40 238.18 94.48L238.18 94.48Q238.85 94.65 239.69 94.73Q240.53 94.82 241.04 94.82L241.04 94.82Q243.47 94.82 245.49 93.30Q247.50 91.79 248.76 88.68Q250.02 85.58 250.02 80.96L250.02 80.96Q250.02 76.50 248.76 73.44Q247.50 70.37 245.07 68.73Q242.63 67.10 239.02 67.10L239.02 67.10Q237.51 67.10 236.63 67.52Q235.74 67.94 235.37 69.11Q234.99 70.29 234.99 72.47L234.99 72.47ZM298.04 119.01L298.04 119.01Q291.99 119.01 287.08 116.87Q282.16 114.72 278.68 110.94Q275.19 107.16 273.30 102.25Q271.41 97.34 271.41 91.79L271.41 91.79Q271.41 84.99 274.06 79.86Q276.70 74.74 281.07 71.34Q285.44 67.94 290.65 66.26Q295.86 64.58 300.98 64.58L300.98 64.58Q307.20 64.58 312.11 66.80Q317.02 69.03 320.47 72.81Q323.91 76.59 325.72 81.38Q327.52 86.16 327.52 91.20L327.52 91.20Q327.52 97.08 325.17 102.12Q322.82 107.16 318.75 110.94Q314.67 114.72 309.34 116.87Q304.00 119.01 298.04 119.01ZM300.81 116.91L300.81 116.91Q305.52 116.91 309.21 114.22Q312.91 111.53 315.05 106.32Q317.19 101.12 317.19 93.64L317.19 93.64Q317.19 85.91 314.84 79.86Q312.49 73.82 308.12 70.33Q303.75 66.84 297.62 66.84L297.62 66.84Q289.98 66.84 285.86 72.64Q281.74 78.44 281.74 88.68L281.74 88.68Q281.74 94.82 283.17 99.98Q284.60 105.15 287.16 108.97Q289.72 112.79 293.21 114.85Q296.70 116.91 300.81 116.91ZM354.29 67.43L354.29 67.43Q349.16 67.43 345.59 70.83Q342.02 74.24 339.92 80.45L339.92 80.45Q339.84 80.70 339.42 80.66Q339.00 80.62 339.00 80.37L339.00 80.37Q339.17 79.19 339.34 77.05Q339.50 74.91 339.71 72.39Q339.92 69.87 340.05 67.52Q340.18 65.16 340.18 63.65L340.18 63.65Q340.18 63.23 340.64 63.23Q341.10 63.23 341.10 63.65L341.10 63.65Q341.10 64.49 341.98 64.87Q342.86 65.25 344.00 65.37Q345.13 65.50 345.89 65.50L345.89 65.50Q353.11 65.75 362.77 65.75L362.77 65.75Q368.65 65.75 372.18 65.63Q375.71 65.50 378.98 65.50L378.98 65.50Q382.01 65.50 383.56 65.12Q385.12 64.74 385.54 63.40L385.54 63.40Q385.62 63.06 386.08 63.06Q386.54 63.06 386.54 63.40L386.54 63.40Q386.38 64.74 386.25 67.14Q386.12 69.53 386.00 72.18Q385.87 74.82 385.79 77.05Q385.70 79.28 385.70 80.37L385.70 80.37Q385.70 80.62 385.28 80.62Q384.86 80.62 384.78 80.37L384.78 80.37Q383.52 73.73 380.03 70.58Q376.55 67.43 371.59 67.43L371.59 67.43Q369.91 67.43 369.03 67.89Q368.15 68.36 367.85 69.45Q367.56 70.54 367.56 72.47L367.56 72.47L367.56 111.20Q367.56 113.63 368.06 114.89Q368.57 116.15 370.04 116.57Q371.51 116.99 374.53 116.99L374.53 116.99Q374.78 116.99 374.78 117.50Q374.78 118 374.53 118L374.53 118Q372.18 118 369.24 117.92Q366.30 117.83 362.77 117.83L362.77 117.83Q359.41 117.83 356.47 117.92Q353.53 118 351.10 118L351.10 118Q350.84 118 350.84 117.50Q350.84 116.99 351.10 116.99L351.10 116.99Q354.04 116.99 355.55 116.57Q357.06 116.15 357.61 114.89Q358.15 113.63 358.15 111.20L358.15 111.20L358.15 72.30Q358.15 70.46 357.86 69.41Q357.56 68.36 356.72 67.89Q355.88 67.43 354.29 67.43Z" fill="#d4a930"/>
  <path d="M3.68 160.06L3.68 160.06Q3.35 160.06 3.14 159.89Q2.92 159.72 2.96 159.30L2.96 159.30Q3.08 158.83 3.68 158.83L3.68 158.83Q4.05 158.83 4.42 158.82Q4.79 158.80 5.14 158.70Q5.49 158.60 5.82 158.38L5.82 158.38Q6.21 158.11 6.74 157.46Q7.26 156.80 7.83 155.94Q8.41 155.09 8.93 154.19Q9.45 153.29 9.82 152.50Q10.19 151.71 10.32 151.20L10.32 151.20Q10.44 150.68 10.41 150.25Q10.37 149.82 10.26 149.48Q10.16 149.15 10.07 148.89Q9.98 148.63 9.98 148.47L9.98 148.47Q9.98 148.20 10.16 148.03Q10.34 147.87 10.62 147.87L10.62 147.87Q11.00 147.87 11.16 148.14Q11.31 148.41 11.31 148.86L11.31 148.86Q11.31 149.51 11.02 150.42Q10.73 151.33 10.24 152.39Q9.74 153.45 9.10 154.52Q8.46 155.59 7.75 156.59Q7.04 157.59 6.30 158.37Q5.57 159.14 4.89 159.60Q4.22 160.06 3.68 160.06ZM8.18 155.63L7.28 157.03Q7.38 153.06 6.84 150.87Q6.29 148.68 5.24 148.68L5.24 148.68Q5.01 148.68 4.77 148.83Q4.52 148.97 4.34 149.35L4.34 149.35Q4.31 149.42 4.21 149.39Q4.11 149.37 4.13 149.29L4.13 149.29Q4.47 148.61 4.88 148.25Q5.30 147.89 5.80 147.89L5.80 147.89Q6.43 147.89 6.92 148.50Q7.40 149.11 7.71 150.19Q8.01 151.26 8.14 152.65Q8.27 154.05 8.18 155.63L8.18 155.63ZM14.75 155.25L14.75 155.25Q13.88 155.25 13.32 154.75Q12.77 154.24 12.57 153.40Q12.37 152.55 12.57 151.53L12.57 151.53Q12.77 150.46 13.32 149.63Q13.88 148.79 14.67 148.30Q15.47 147.82 16.35 147.82L16.35 147.82Q17.28 147.82 17.85 148.33Q18.42 148.84 18.61 149.68Q18.80 150.52 18.58 151.53L18.58 151.53Q18.36 152.66 17.76 153.51Q17.16 154.35 16.36 154.80Q15.56 155.25 14.75 155.25ZM15.38 154.80L15.38 154.80Q16.11 154.80 16.73 154.15Q17.36 153.49 17.57 152.32L17.57 152.32Q17.70 151.65 17.66 150.94Q17.63 150.23 17.41 149.62Q17.19 149.01 16.80 148.63Q16.40 148.25 15.83 148.25L15.83 148.25Q15.07 148.25 14.44 148.92Q13.81 149.58 13.58 150.75L13.58 150.75Q13.43 151.45 13.49 152.16Q13.54 152.86 13.77 153.46Q13.99 154.06 14.39 154.43Q14.80 154.80 15.38 154.80ZM21.51 155.23L21.51 155.23Q20.74 155.23 20.47 154.67Q20.20 154.10 20.45 152.86L20.45 152.86L21.10 149.65Q21.21 149.10 21.12 148.85Q21.03 148.61 20.81 148.61L20.81 148.61Q20.61 148.61 20.31 148.84Q20.00 149.06 19.62 149.44L19.62 149.44Q19.55 149.51 19.48 149.44Q19.41 149.37 19.48 149.29L19.48 149.29Q20.07 148.61 20.56 148.25Q21.05 147.89 21.51 147.89L21.51 147.89Q21.95 147.89 22.08 148.29Q22.22 148.68 22.02 149.65L22.02 149.65L21.44 152.52Q21.21 153.56 21.39 154.05Q21.57 154.53 22.09 154.53L22.09 154.53Q22.68 154.53 23.31 153.79Q23.94 153.06 24.51 151.63Q25.08 150.21 25.44 148.18L25.44 148.18L25.67 148.20Q25.31 150.30 24.67 151.89Q24.03 153.47 23.22 154.35Q22.41 155.23 21.51 155.23ZM25.02 155.16L25.02 155.16Q24.57 155.16 24.47 154.78Q24.36 154.39 24.52 153.43L24.52 153.43L25.44 148.18Q25.49 147.91 26.01 147.91L26.01 147.91Q26.28 147.91 26.37 147.94Q26.45 147.98 26.45 148.02L26.45 148.02Q26.45 148.09 26.36 148.50Q26.27 148.92 26.18 149.38L26.18 149.38L25.44 153.40Q25.26 154.46 25.73 154.46L25.73 154.46Q25.94 154.46 26.27 154.24Q26.59 154.03 26.99 153.63L26.99 153.63Q27.04 153.56 27.11 153.64Q27.18 153.72 27.13 153.78L27.13 153.78Q26.50 154.48 26.01 154.82Q25.51 155.16 25.02 155.16ZM31.00 159.95L31.00 159.95Q30.37 159.95 30.09 159.71Q29.81 159.46 29.87 159.18L29.87 159.18Q29.88 158.94 30.06 158.78Q30.24 158.62 30.51 158.62L30.51 158.62Q30.80 158.62 30.93 158.77Q31.05 158.92 31.11 159.12Q31.16 159.32 31.24 159.47Q31.32 159.63 31.54 159.63L31.54 159.63Q31.76 159.63 31.91 159.35Q32.06 159.07 32.22 158.26Q32.39 157.45 32.62 155.85L32.62 155.85L33.54 149.49Q33.61 149.04 33.57 148.84Q33.52 148.63 33.29 148.56Q33.05 148.50 32.55 148.50L32.55 148.50Q32.48 148.50 32.49 148.39Q32.51 148.29 32.57 148.29L32.57 148.29Q33.21 148.29 33.48 148.11Q33.75 147.93 33.83 147.48L33.83 147.48Q34.10 145.84 34.41 144.77Q34.73 143.70 35.14 143.07Q35.55 142.45 36.11 142.19Q36.67 141.93 37.46 141.93L37.46 141.93Q38.11 141.93 38.45 142.21Q38.79 142.49 38.76 142.87L38.76 142.87Q38.70 143.14 38.52 143.26Q38.34 143.39 38.13 143.39L38.13 143.39Q37.84 143.39 37.72 143.21Q37.61 143.03 37.53 142.80Q37.44 142.56 37.32 142.38Q37.19 142.20 36.90 142.20L36.90 142.20Q36.20 142.20 35.70 143.44Q35.19 144.67 34.83 147.10L34.83 147.10L33.63 155.38Q33.38 157.09 33.05 158.10Q32.73 159.10 32.23 159.53Q31.74 159.95 31.00 159.95ZM36.04 148.84L36.04 148.84Q35.84 148.81 35.53 148.76Q35.21 148.72 34.84 148.68Q34.47 148.65 34.08 148.65L34.08 148.65L34.11 148.23Q34.51 148.23 35.02 148.20Q35.54 148.16 35.97 148.13Q36.40 148.11 36.53 148.11L36.53 148.11Q36.62 148.11 36.64 148.15Q36.67 148.20 36.65 148.27L36.65 148.27Q36.62 148.41 36.43 148.64Q36.24 148.86 36.04 148.84ZM38.99 155.25L38.99 155.25Q38.13 155.25 37.57 154.75Q37.01 154.24 36.81 153.40Q36.62 152.55 36.81 151.53L36.81 151.53Q37.01 150.46 37.57 149.63Q38.13 148.79 38.92 148.30Q39.71 147.82 40.59 147.82L40.59 147.82Q41.53 147.82 42.10 148.33Q42.66 148.84 42.85 149.68Q43.04 150.52 42.83 151.53L42.83 151.53Q42.61 152.66 42.01 153.51Q41.40 154.35 40.60 154.80Q39.80 155.25 38.99 155.25ZM39.62 154.80L39.62 154.80Q40.36 154.80 40.98 154.15Q41.60 153.49 41.82 152.32L41.82 152.32Q41.94 151.65 41.91 150.94Q41.87 150.23 41.66 149.62Q41.44 149.01 41.04 148.63Q40.65 148.25 40.07 148.25L40.07 148.25Q39.32 148.25 38.69 148.92Q38.06 149.58 37.82 150.75L37.82 150.75Q37.68 151.45 37.73 152.16Q37.79 152.86 38.01 153.46Q38.24 154.06 38.64 154.43Q39.05 154.80 39.62 154.80ZM45.76 155.23L45.76 155.23Q44.99 155.23 44.72 154.67Q44.45 154.10 44.70 152.86L44.70 152.86L45.35 149.65Q45.45 149.10 45.36 148.85Q45.27 148.61 45.06 148.61L45.06 148.61Q44.86 148.61 44.55 148.84Q44.25 149.06 43.87 149.44L43.87 149.44Q43.80 149.51 43.73 149.44Q43.65 149.37 43.73 149.29L43.73 149.29Q44.32 148.61 44.81 148.25Q45.29 147.89 45.76 147.89L45.76 147.89Q46.19 147.89 46.33 148.29Q46.46 148.68 46.26 149.65L46.26 149.65L45.69 152.52Q45.45 153.56 45.63 154.05Q45.81 154.53 46.34 154.53L46.34 154.53Q46.93 154.53 47.56 153.79Q48.19 153.06 48.76 151.63Q49.32 150.21 49.68 148.18L49.68 148.18L49.92 148.20Q49.56 150.30 48.92 151.89Q48.28 153.47 47.47 154.35Q46.66 155.23 45.76 155.23ZM49.27 155.16L49.27 155.16Q48.82 155.16 48.71 154.78Q48.60 154.39 48.77 153.43L48.77 153.43L49.68 148.18Q49.74 147.91 50.26 147.91L50.26 147.91Q50.53 147.91 50.61 147.94Q50.69 147.98 50.69 148.02L50.69 148.02Q50.69 148.09 50.60 148.50Q50.51 148.92 50.42 149.38L50.42 149.38L49.68 153.40Q49.50 154.46 49.97 154.46L49.97 154.46Q50.19 154.46 50.51 154.24Q50.84 154.03 51.23 153.63L51.23 153.63Q51.29 153.56 51.36 153.64Q51.43 153.72 51.38 153.78L51.38 153.78Q50.75 154.48 50.25 154.82Q49.76 155.16 49.27 155.16ZM57.82 155.16L57.82 155.16Q57.35 155.16 57.24 154.77Q57.12 154.37 57.30 153.40L57.30 153.40L57.82 150.54Q58.23 148.52 57.15 148.52L57.15 148.52Q56.58 148.52 55.95 149.26Q55.32 150.00 54.75 151.42Q54.18 152.84 53.81 154.87L53.81 154.87L53.59 154.86Q53.97 152.75 54.60 151.17Q55.23 149.58 56.05 148.70Q56.87 147.82 57.75 147.82L57.75 147.82Q58.52 147.82 58.78 148.38Q59.04 148.93 58.79 150.19L58.79 150.19L58.20 153.40Q58.11 153.94 58.20 154.19Q58.29 154.44 58.50 154.44L58.50 154.44Q58.70 154.44 59.01 154.22Q59.31 153.99 59.69 153.61L59.69 153.61Q59.75 153.54 59.83 153.61Q59.91 153.69 59.84 153.76L59.84 153.76Q59.26 154.42 58.77 154.79Q58.29 155.16 57.82 155.16ZM53.23 155.14L53.23 155.14Q52.98 155.14 52.90 155.12Q52.82 155.09 52.82 155.04L52.82 155.04Q52.82 154.96 52.92 154.55Q53.01 154.14 53.09 153.67L53.09 153.67L53.82 149.65Q54.00 148.59 53.52 148.59L53.52 148.59Q53.32 148.59 53.00 148.81Q52.67 149.02 52.28 149.42L52.28 149.42Q52.22 149.49 52.14 149.41Q52.06 149.33 52.13 149.28L52.13 149.28Q52.74 148.57 53.26 148.23Q53.77 147.89 54.24 147.89L54.24 147.89Q54.67 147.89 54.79 148.28Q54.90 148.66 54.74 149.62L54.74 149.62L53.81 154.87Q53.77 155.14 53.23 155.14ZM62.01 155.23L62.01 155.23Q61.56 155.23 61.19 154.99Q60.81 154.75 60.64 154.20Q60.47 153.65 60.61 152.73L60.61 152.73Q60.79 151.72 61.27 150.84Q61.74 149.96 62.42 149.28Q63.09 148.59 63.87 148.21Q64.64 147.82 65.43 147.82L65.43 147.82Q65.94 147.82 66.37 148.10Q66.80 148.38 66.86 149.02L66.86 149.02L66.10 150.57Q65.56 151.92 64.90 152.97Q64.25 154.03 63.53 154.63Q62.81 155.23 62.01 155.23ZM62.59 154.37L62.59 154.37Q63.18 154.37 63.74 153.90Q64.30 153.43 64.76 152.72Q65.22 152.01 65.52 151.27Q65.83 150.54 65.94 150.00L65.94 150.00Q66.08 149.24 65.75 148.84Q65.42 148.45 64.79 148.45L64.79 148.45Q63.65 148.47 62.78 149.38Q61.91 150.28 61.60 152.01L61.60 152.01Q61.40 153.20 61.70 153.78Q62.00 154.37 62.59 154.37ZM65.81 155.16L65.81 155.16Q65.34 155.16 65.24 154.77Q65.13 154.37 65.31 153.40L65.31 153.40L67.11 143.86Q67.22 143.21 66.95 143.05Q66.68 142.89 65.85 143.28L65.85 143.28Q65.78 143.32 65.74 143.21Q65.70 143.10 65.78 143.08L65.78 143.08L68.12 141.95Q68.17 141.91 68.24 141.99Q68.31 142.06 68.30 142.09L68.30 142.09L66.21 153.40Q66.10 153.94 66.20 154.19Q66.30 154.44 66.51 154.44L66.51 154.44Q66.71 154.44 67.02 154.22Q67.32 153.99 67.70 153.61L67.70 153.61Q67.76 153.54 67.84 153.61Q67.92 153.69 67.85 153.76L67.85 153.76Q67.23 154.42 66.77 154.79Q66.30 155.16 65.81 155.16ZM74.15 155.20L74.15 155.20Q73.46 155.20 72.96 154.87Q72.45 154.55 72.53 154.08L72.53 154.08Q72.56 153.83 72.72 153.70Q72.89 153.58 73.07 153.58L73.07 153.58Q73.30 153.58 73.42 153.77Q73.53 153.96 73.66 154.19Q73.79 154.42 74.02 154.61Q74.25 154.80 74.69 154.80L74.69 154.80Q75.17 154.80 75.47 154.53Q75.77 154.26 75.84 153.70L75.84 153.70Q75.91 153.15 75.68 152.74Q75.44 152.34 75.04 152.01Q74.63 151.69 74.25 151.35Q73.86 151.02 73.63 150.61Q73.41 150.19 73.52 149.64L73.52 149.64Q73.62 149.08 73.99 148.68Q74.36 148.29 74.88 148.08Q75.39 147.87 75.91 147.87L75.91 147.87Q76.56 147.87 76.99 148.13Q77.42 148.39 77.37 148.77L77.37 148.77Q77.31 149.02 77.14 149.14Q76.97 149.26 76.81 149.26L76.81 149.26Q76.56 149.26 76.41 149.11Q76.27 148.97 76.14 148.77Q76.00 148.57 75.81 148.42Q75.62 148.27 75.26 148.27L75.26 148.27Q74.92 148.27 74.65 148.45Q74.38 148.63 74.33 148.99L74.33 148.99Q74.24 149.53 74.48 149.92Q74.72 150.32 75.12 150.66Q75.51 151.00 75.91 151.35Q76.31 151.71 76.53 152.14Q76.76 152.57 76.67 153.15L76.67 153.15Q76.58 153.67 76.23 154.15Q75.87 154.62 75.33 154.91Q74.79 155.20 74.15 155.20ZM80.54 155.25L80.54 155.25Q79.67 155.25 79.11 154.75Q78.56 154.24 78.36 153.40Q78.16 152.55 78.36 151.53L78.36 151.53Q78.56 150.46 79.11 149.63Q79.67 148.79 80.46 148.30Q81.26 147.82 82.14 147.82L82.14 147.82Q83.07 147.82 83.64 148.33Q84.21 148.84 84.40 149.68Q84.59 150.52 84.37 151.53L84.37 151.53Q84.15 152.66 83.55 153.51Q82.95 154.35 82.15 154.80Q81.35 155.25 80.54 155.25ZM81.17 154.80L81.17 154.80Q81.90 154.80 82.53 154.15Q83.15 153.49 83.36 152.32L83.36 152.32Q83.49 151.65 83.45 150.94Q83.42 150.23 83.20 149.62Q82.98 149.01 82.59 148.63Q82.19 148.25 81.62 148.25L81.62 148.25Q80.86 148.25 80.23 148.92Q79.60 149.58 79.37 150.75L79.37 150.75Q79.22 151.45 79.28 152.16Q79.33 152.86 79.56 153.46Q79.78 154.06 80.19 154.43Q80.59 154.80 81.17 154.80ZM94.77 155.16L94.77 155.16Q94.32 155.16 94.21 154.77Q94.09 154.37 94.27 153.40L94.27 153.40L94.79 150.54Q94.97 149.51 94.83 149.01Q94.68 148.52 94.18 148.52L94.18 148.52Q93.64 148.52 93.02 149.25Q92.40 149.98 91.85 151.40Q91.30 152.82 90.92 154.87L90.92 154.87L90.72 154.86Q91.08 152.75 91.71 151.16Q92.33 149.56 93.12 148.69Q93.91 147.82 94.77 147.82L94.77 147.82Q95.49 147.82 95.74 148.38Q95.98 148.93 95.75 150.19L95.75 150.19L95.17 153.40Q95.08 153.94 95.16 154.19Q95.24 154.44 95.46 154.44L95.46 154.44Q95.67 154.44 95.97 154.22Q96.27 153.99 96.65 153.61L96.65 153.61Q96.72 153.54 96.79 153.61Q96.86 153.69 96.79 153.76L96.79 153.76Q96.21 154.42 95.73 154.79Q95.24 155.16 94.77 155.16ZM86.40 155.14L86.40 155.14Q86.13 155.14 86.06 155.12Q85.99 155.09 85.99 155.04L85.99 155.04Q85.99 154.96 86.08 154.57Q86.17 154.17 86.24 153.76L86.24 153.76L87.00 149.65Q87.18 148.59 86.69 148.59L86.69 148.59Q86.49 148.59 86.17 148.81Q85.85 149.02 85.45 149.42L85.45 149.42Q85.40 149.49 85.32 149.41Q85.23 149.33 85.31 149.28L85.31 149.28Q85.92 148.57 86.43 148.23Q86.94 147.89 87.41 147.89L87.41 147.89Q87.84 147.89 87.96 148.28Q88.08 148.66 87.92 149.62L87.92 149.62L86.98 154.87Q86.91 155.14 86.40 155.14ZM90.36 155.14L90.36 155.14Q90.11 155.14 90.03 155.12Q89.95 155.09 89.95 155.04L89.95 155.04Q89.95 154.96 90.05 154.52Q90.15 154.08 90.22 153.67L90.22 153.67L90.81 150.54Q90.96 149.51 90.82 149.01Q90.69 148.52 90.22 148.52L90.22 148.52Q89.68 148.52 89.06 149.26Q88.44 150.00 87.89 151.43Q87.34 152.86 86.98 154.87L86.98 154.87L86.75 154.86Q87.11 152.75 87.73 151.17Q88.35 149.58 89.15 148.70Q89.95 147.82 90.81 147.82L90.81 147.82Q91.50 147.82 91.76 148.37Q92.02 148.92 91.77 150.19L91.77 150.19L90.92 154.87Q90.89 155.14 90.36 155.14ZM99.99 155.22L99.99 155.22Q99.04 155.22 98.49 154.71Q97.94 154.21 97.77 153.40Q97.60 152.59 97.78 151.67L97.78 151.67Q97.89 151.00 98.26 150.31Q98.63 149.62 99.18 149.06Q99.74 148.50 100.43 148.16Q101.11 147.82 101.88 147.82L101.88 147.82Q102.55 147.82 102.87 148.08Q103.18 148.34 103.11 148.79L103.11 148.79Q103.02 149.22 102.60 149.62Q102.19 150.01 101.54 150.33Q100.89 150.64 100.09 150.88Q99.29 151.11 98.43 151.20L98.43 151.20L98.46 150.97Q99.85 150.77 100.80 150.33Q101.74 149.89 101.90 149.17L101.90 149.17Q102.03 148.68 101.74 148.49Q101.45 148.30 101.09 148.30L101.09 148.30Q100.48 148.30 100.03 148.68Q99.58 149.06 99.29 149.69Q99.00 150.32 98.88 151.08L98.88 151.08Q98.68 152.08 98.83 152.88Q98.99 153.67 99.45 154.14Q99.92 154.60 100.68 154.60L100.68 154.60Q101.11 154.60 101.58 154.48Q102.05 154.35 102.50 154.01L102.50 154.01Q102.55 153.97 102.61 154.05Q102.68 154.12 102.62 154.17L102.62 154.17Q101.94 154.73 101.29 154.97Q100.64 155.22 99.99 155.22ZM105.56 155.22L105.56 155.22Q105.21 155.22 104.90 155.08Q104.58 154.95 104.43 154.61Q104.28 154.28 104.39 153.69L104.39 153.69L105.16 149.49Q105.29 148.83 105.19 148.66Q105.09 148.50 104.55 148.50L104.55 148.50Q104.48 148.50 104.49 148.39Q104.51 148.29 104.57 148.29L104.57 148.29Q105.20 148.29 105.65 147.88Q106.10 147.48 106.24 146.90L106.24 146.90Q106.26 146.85 106.41 146.85Q106.56 146.85 106.55 146.90L106.55 146.90L105.43 153.13Q105.29 153.87 105.49 154.21Q105.70 154.55 106.26 154.55L106.26 154.55Q106.78 154.55 107.19 154.31Q107.61 154.06 107.99 153.74L107.99 153.74Q108.02 153.70 108.10 153.78Q108.18 153.85 108.13 153.88L108.13 153.88Q107.32 154.60 106.71 154.91Q106.10 155.22 105.56 155.22ZM108.15 148.84L108.15 148.84Q108.11 148.84 107.75 148.80Q107.39 148.75 106.92 148.71Q106.44 148.66 105.99 148.66L105.99 148.66L106.02 148.23Q106.49 148.23 107.03 148.20Q107.57 148.16 108.02 148.13Q108.47 148.11 108.60 148.11L108.60 148.11Q108.69 148.11 108.72 148.15Q108.74 148.20 108.72 148.27L108.72 148.27Q108.71 148.41 108.52 148.63Q108.33 148.84 108.15 148.84ZM109.80 155.14L109.80 155.14Q109.55 155.14 109.47 155.12Q109.39 155.09 109.39 155.04L109.39 155.04Q109.39 154.96 109.49 154.55Q109.59 154.14 109.66 153.67L109.66 153.67L111.50 143.86Q111.62 143.21 111.35 143.05Q111.08 142.89 110.27 143.28L110.27 143.28Q110.20 143.32 110.16 143.21Q110.11 143.10 110.18 143.08L110.18 143.08L112.50 141.95Q112.58 141.91 112.65 141.99Q112.72 142.06 112.70 142.09L112.70 142.09L110.38 154.87Q110.34 155.14 109.80 155.14ZM114.39 155.16L114.39 155.16Q113.93 155.16 113.81 154.77Q113.69 154.37 113.87 153.40L113.87 153.40L114.39 150.54Q114.59 149.51 114.43 149.01Q114.27 148.52 113.73 148.52L113.73 148.52Q113.15 148.52 112.52 149.26Q111.89 150.00 111.33 151.42Q110.76 152.84 110.38 154.87L110.38 154.87L110.16 154.86Q110.54 152.75 111.17 151.17Q111.80 149.58 112.62 148.70Q113.44 147.82 114.32 147.82L114.32 147.82Q115.10 147.82 115.34 148.38Q115.58 148.93 115.37 150.19L115.37 150.19L114.77 153.40Q114.68 153.94 114.76 154.19Q114.84 154.44 115.08 154.44L115.08 154.44Q115.28 154.44 115.58 154.22Q115.89 153.99 116.27 153.61L116.27 153.61Q116.34 153.54 116.41 153.61Q116.48 153.69 116.41 153.76L116.41 153.76Q115.83 154.42 115.35 154.79Q114.86 155.16 114.39 155.16ZM118.66 155.16L118.66 155.16Q118.23 155.16 118.08 154.78Q117.94 154.41 118.14 153.40L118.14 153.40L118.88 149.65Q119.07 148.59 118.57 148.59L118.57 148.59Q118.37 148.59 118.04 148.81Q117.71 149.02 117.33 149.42L117.33 149.42Q117.27 149.49 117.19 149.41Q117.11 149.33 117.18 149.28L117.18 149.28Q117.80 148.57 118.30 148.23Q118.80 147.89 119.27 147.89L119.27 147.89Q119.72 147.89 119.85 148.28Q119.97 148.66 119.78 149.62L119.78 149.62L119.06 153.40Q118.95 153.94 119.04 154.19Q119.13 154.44 119.34 154.44L119.34 154.44Q119.54 154.44 119.87 154.24Q120.19 154.03 120.57 153.65L120.57 153.65Q120.64 153.58 120.71 153.65Q120.78 153.72 120.71 153.79L120.71 153.79Q120.12 154.46 119.62 154.81Q119.13 155.16 118.66 155.16ZM119.79 145.77L119.79 145.77Q119.43 145.77 119.23 145.57Q119.02 145.37 119.02 144.99L119.02 144.99Q119.02 144.65 119.23 144.45Q119.43 144.25 119.79 144.25L119.79 144.25Q120.17 144.25 120.36 144.45Q120.55 144.65 120.55 144.99L120.55 144.99Q120.55 145.77 119.79 145.77ZM127.21 155.16L127.21 155.16Q126.74 155.16 126.63 154.77Q126.51 154.37 126.69 153.40L126.69 153.40L127.21 150.54Q127.62 148.52 126.54 148.52L126.54 148.52Q125.97 148.52 125.34 149.26Q124.71 150.00 124.14 151.42Q123.57 152.84 123.20 154.87L123.20 154.87L122.98 154.86Q123.36 152.75 123.99 151.17Q124.62 149.58 125.44 148.70Q126.26 147.82 127.14 147.82L127.14 147.82Q127.91 147.82 128.17 148.38Q128.43 148.93 128.18 150.19L128.18 150.19L127.59 153.40Q127.50 153.94 127.59 154.19Q127.68 154.44 127.89 154.44L127.89 154.44Q128.09 154.44 128.40 154.22Q128.70 153.99 129.08 153.61L129.08 153.61Q129.14 153.54 129.22 153.61Q129.30 153.69 129.23 153.76L129.23 153.76Q128.65 154.42 128.16 154.79Q127.68 155.16 127.21 155.16ZM122.62 155.14L122.62 155.14Q122.37 155.14 122.29 155.12Q122.21 155.09 122.21 155.04L122.21 155.04Q122.21 154.96 122.31 154.55Q122.40 154.14 122.48 153.67L122.48 153.67L123.21 149.65Q123.39 148.59 122.91 148.59L122.91 148.59Q122.71 148.59 122.39 148.81Q122.06 149.02 121.67 149.42L121.67 149.42Q121.61 149.49 121.53 149.41Q121.45 149.33 121.52 149.28L121.52 149.28Q122.13 148.57 122.65 148.23Q123.16 147.89 123.63 147.89L123.63 147.89Q124.06 147.89 124.18 148.28Q124.29 148.66 124.13 149.62L124.13 149.62L123.20 154.87Q123.16 155.14 122.62 155.14ZM131.33 160.06L131.33 160.06Q130.36 160.06 129.72 159.75Q129.08 159.45 128.80 158.95Q128.52 158.46 128.65 157.90L128.65 157.90Q128.83 157.11 129.65 156.50Q130.47 155.90 131.53 155.32L131.53 155.32L131.66 155.47Q131.24 155.72 130.80 156.00Q130.36 156.28 130.05 156.63Q129.73 156.98 129.66 157.48L129.66 157.48Q129.57 158.06 129.86 158.54Q130.14 159.01 130.75 159.28Q131.35 159.55 132.20 159.55L132.20 159.55Q133.17 159.55 133.69 159.15Q134.21 158.74 134.25 158.15L134.25 158.15Q134.27 157.66 133.99 157.30Q133.71 156.94 133.26 156.66Q132.81 156.39 132.31 156.14Q131.82 155.90 131.40 155.64Q130.97 155.38 130.74 155.06Q130.50 154.75 130.58 154.32L130.58 154.32Q130.67 153.92 131.00 153.56Q131.33 153.20 131.82 152.79L131.82 152.79L132.00 152.93Q131.80 153.04 131.63 153.28Q131.46 153.52 131.42 153.78L131.42 153.78Q131.37 154.15 131.63 154.44Q131.89 154.73 132.34 154.97Q132.79 155.22 133.29 155.46Q133.78 155.70 134.22 156.00Q134.66 156.30 134.91 156.69Q135.17 157.09 135.11 157.63L135.11 157.63Q135.06 158.28 134.52 158.82Q133.98 159.37 133.15 159.72Q132.32 160.06 131.33 160.06ZM132.12 153.24L132.12 153.24Q131.42 153.24 130.97 152.87Q130.52 152.50 130.37 151.90Q130.22 151.29 130.38 150.57L130.38 150.57Q130.52 149.82 130.96 149.22Q131.40 148.63 132.03 148.29Q132.66 147.94 133.38 147.94L133.38 147.94Q134.10 147.94 134.54 148.30Q134.97 148.66 135.11 149.26Q135.26 149.85 135.11 150.57L135.11 150.57Q134.95 151.38 134.48 151.98Q134.01 152.57 133.39 152.90Q132.77 153.24 132.12 153.24ZM132.57 152.89L132.57 152.89Q133.10 152.89 133.55 152.41Q134.00 151.92 134.14 151.06L134.14 151.06Q134.25 150.48 134.17 149.83Q134.09 149.19 133.79 148.73Q133.49 148.27 132.93 148.27L132.93 148.27Q132.39 148.27 131.94 148.79Q131.48 149.31 131.35 150.12L131.35 150.12Q131.24 150.75 131.34 151.40Q131.44 152.05 131.76 152.47Q132.07 152.89 132.57 152.89ZM134.05 148.77L134.05 148.77L134.03 148.65Q134.57 148.32 135.19 148.12Q135.81 147.91 136.32 147.91L136.32 147.91Q136.41 147.91 136.42 148.06Q136.43 148.21 136.38 148.39Q136.34 148.57 136.28 148.70Q136.23 148.83 136.17 148.79L136.17 148.79Q135.76 148.57 135.17 148.57Q134.57 148.57 134.05 148.77ZM142.26 155.20L142.26 155.20Q141.57 155.20 141.07 154.87Q140.57 154.55 140.64 154.08L140.64 154.08Q140.67 153.83 140.84 153.70Q141.00 153.58 141.18 153.58L141.18 153.58Q141.41 153.58 141.53 153.77Q141.65 153.96 141.77 154.19Q141.90 154.42 142.13 154.61Q142.37 154.80 142.80 154.80L142.80 154.80Q143.28 154.80 143.58 154.53Q143.88 154.26 143.95 153.70L143.95 153.70Q144.02 153.15 143.79 152.74Q143.55 152.34 143.15 152.01Q142.74 151.69 142.36 151.35Q141.97 151.02 141.75 150.61Q141.52 150.19 141.63 149.64L141.63 149.64Q141.74 149.08 142.11 148.68Q142.47 148.29 142.99 148.08Q143.50 147.87 144.02 147.87L144.02 147.87Q144.67 147.87 145.10 148.13Q145.53 148.39 145.48 148.77L145.48 148.77Q145.43 149.02 145.26 149.14Q145.08 149.26 144.92 149.26L144.92 149.26Q144.67 149.26 144.53 149.11Q144.38 148.97 144.25 148.77Q144.11 148.57 143.92 148.42Q143.73 148.27 143.37 148.27L143.37 148.27Q143.03 148.27 142.76 148.45Q142.49 148.63 142.44 148.99L142.44 148.99Q142.35 149.53 142.59 149.92Q142.83 150.32 143.23 150.66Q143.63 151.00 144.02 151.35Q144.42 151.71 144.64 152.14Q144.87 152.57 144.78 153.15L144.78 153.15Q144.69 153.67 144.34 154.15Q143.99 154.62 143.45 154.91Q142.91 155.20 142.26 155.20ZM147.95 159.48L144.85 159.95Q144.78 159.97 144.76 159.86Q144.74 159.75 144.81 159.73L144.81 159.73Q145.21 159.66 145.41 159.55Q145.61 159.45 145.71 159.17Q145.82 158.89 145.91 158.33L145.91 158.33L147.75 148.05Q147.75 148.00 147.87 147.89Q148.00 147.78 148.18 147.61Q148.36 147.44 148.50 147.22Q148.65 147.01 148.70 146.74L148.70 146.74Q148.74 146.67 148.83 146.68Q148.92 146.70 148.90 146.77L148.90 146.77L146.87 158.20Q146.74 158.94 146.95 159.16Q147.15 159.37 147.91 159.28L147.91 159.28Q147.98 159.25 148.01 159.36Q148.04 159.46 147.95 159.48L147.95 159.48ZM148.49 155.02L148.49 155.02Q147.82 155.02 147.49 154.96Q147.15 154.91 146.90 154.86L146.90 154.86L147.08 153.92Q147.42 154.15 147.87 154.33Q148.32 154.51 148.99 154.51L148.99 154.51Q149.80 154.51 150.35 154.06Q150.90 153.60 151.24 152.81Q151.58 152.03 151.69 151.04L151.69 151.04Q151.78 150.43 151.71 149.86Q151.64 149.29 151.31 148.93Q150.99 148.57 150.25 148.57L150.25 148.57Q149.42 148.57 148.59 149.06Q147.75 149.55 146.63 150.39L146.63 150.39Q146.58 150.43 146.51 150.34Q146.43 150.25 146.51 150.23L146.51 150.23Q147.59 149.28 148.75 148.60Q149.91 147.93 151.01 147.93L151.01 147.93Q152.01 147.93 152.46 148.57Q152.90 149.22 152.72 150.45L152.72 150.45Q152.59 151.36 152.18 152.19Q151.76 153.02 151.18 153.66Q150.59 154.30 149.89 154.66Q149.19 155.02 148.49 155.02ZM155.99 155.22L155.99 155.22Q155.04 155.22 154.49 154.71Q153.94 154.21 153.77 153.40Q153.60 152.59 153.78 151.67L153.78 151.67Q153.89 151.00 154.26 150.31Q154.62 149.62 155.18 149.06Q155.74 148.50 156.42 148.16Q157.11 147.82 157.88 147.82L157.88 147.82Q158.55 147.82 158.86 148.08Q159.18 148.34 159.11 148.79L159.11 148.79Q159.02 149.22 158.60 149.62Q158.19 150.01 157.54 150.33Q156.89 150.64 156.09 150.88Q155.29 151.11 154.43 151.20L154.43 151.20L154.46 150.97Q155.85 150.77 156.79 150.33Q157.74 149.89 157.90 149.17L157.90 149.17Q158.03 148.68 157.74 148.49Q157.45 148.30 157.09 148.30L157.09 148.30Q156.48 148.30 156.03 148.68Q155.58 149.06 155.29 149.69Q155.00 150.32 154.88 151.08L154.88 151.08Q154.68 152.08 154.83 152.88Q154.98 153.67 155.45 154.14Q155.92 154.60 156.68 154.60L156.68 154.60Q157.11 154.60 157.58 154.48Q158.04 154.35 158.49 154.01L158.49 154.01Q158.55 153.97 158.61 154.05Q158.67 154.12 158.62 154.17L158.62 154.17Q157.94 154.73 157.29 154.97Q156.64 155.22 155.99 155.22ZM162.20 155.23L162.20 155.23Q161.43 155.23 160.93 154.88Q160.44 154.53 160.19 153.97Q159.93 153.40 159.90 152.71Q159.86 152.03 160.01 151.36L160.01 151.36Q160.24 150.23 160.86 149.45Q161.48 148.66 162.28 148.24Q163.08 147.82 163.86 147.82L163.86 147.82Q164.29 147.82 164.66 147.95Q165.03 148.09 165.24 148.32Q165.44 148.56 165.41 148.88L165.41 148.88Q165.39 149.11 165.24 149.28Q165.10 149.46 164.81 149.46L164.81 149.46Q164.56 149.46 164.41 149.29Q164.25 149.13 164.16 148.88L164.16 148.88Q164.11 148.66 163.89 148.44Q163.68 148.21 163.23 148.21L163.23 148.21Q162.63 148.21 162.20 148.56Q161.77 148.92 161.51 149.50Q161.25 150.09 161.10 150.81L161.10 150.81Q160.92 151.80 161.04 152.67Q161.16 153.54 161.63 154.07Q162.09 154.60 162.96 154.60L162.96 154.60Q163.55 154.60 164.02 154.35Q164.49 154.10 164.87 153.79L164.87 153.79Q164.92 153.76 164.99 153.83Q165.06 153.90 165.01 153.96L165.01 153.96Q164.27 154.62 163.57 154.93Q162.87 155.23 162.20 155.23ZM167.55 155.16L167.55 155.16Q167.12 155.16 166.97 154.78Q166.83 154.41 167.03 153.40L167.03 153.40L167.76 149.65Q167.96 148.59 167.46 148.59L167.46 148.59Q167.26 148.59 166.93 148.81Q166.59 149.02 166.22 149.42L166.22 149.42Q166.16 149.49 166.08 149.41Q166.00 149.33 166.07 149.28L166.07 149.28Q166.68 148.57 167.19 148.23Q167.69 147.89 168.16 147.89L168.16 147.89Q168.61 147.89 168.74 148.28Q168.86 148.66 168.66 149.62L168.66 149.62L167.94 153.40Q167.84 153.94 167.93 154.19Q168.02 154.44 168.23 154.44L168.23 154.44Q168.43 154.44 168.75 154.24Q169.08 154.03 169.46 153.65L169.46 153.65Q169.53 153.58 169.60 153.65Q169.67 153.72 169.60 153.79L169.60 153.79Q169.01 154.46 168.51 154.81Q168.02 155.16 167.55 155.16ZM168.68 145.77L168.68 145.77Q168.32 145.77 168.12 145.57Q167.91 145.37 167.91 144.99L167.91 144.99Q167.91 144.65 168.12 144.45Q168.32 144.25 168.68 144.25L168.68 144.25Q169.06 144.25 169.25 144.45Q169.44 144.65 169.44 144.99L169.44 144.99Q169.44 145.77 168.68 145.77ZM171.49 155.23L171.49 155.23Q170.90 155.23 170.59 154.80Q170.28 154.37 170.41 153.36L170.41 153.36Q170.55 152.39 171.03 151.41Q171.51 150.43 172.20 149.62Q172.89 148.81 173.67 148.31Q174.44 147.82 175.14 147.82L175.14 147.82Q175.49 147.82 175.80 147.94Q176.12 148.05 176.35 148.33Q176.58 148.61 176.62 149.06L176.62 149.06L175.85 148.57Q176.08 148.54 176.38 148.28Q176.67 148.02 176.76 147.67L176.76 147.67Q176.80 147.62 176.90 147.64Q177.00 147.66 176.98 147.69L176.98 147.69L175.94 153.40Q175.76 154.44 176.21 154.44L176.21 154.44Q176.40 154.44 176.72 154.22Q177.03 153.99 177.39 153.61L177.39 153.61Q177.45 153.56 177.52 153.63Q177.59 153.70 177.54 153.76L177.54 153.76Q176.96 154.42 176.48 154.79Q175.99 155.16 175.52 155.16L175.52 155.16Q175.09 155.16 174.96 154.77Q174.84 154.37 175.02 153.40L175.02 153.40L175.45 150.88L175.76 150.57Q175.22 151.94 174.50 152.99Q173.78 154.05 173.00 154.64Q172.23 155.23 171.49 155.23ZM172.14 154.35L172.14 154.35Q172.64 154.35 173.18 153.96Q173.72 153.56 174.22 152.92Q174.71 152.28 175.08 151.52Q175.45 150.75 175.59 150.01L175.59 150.01Q175.74 149.35 175.47 148.90Q175.20 148.45 174.53 148.45L174.53 148.45Q173.90 148.47 173.25 149.01Q172.61 149.56 172.10 150.47Q171.60 151.38 171.42 152.55L171.42 152.55Q171.29 153.45 171.46 153.90Q171.63 154.35 172.14 154.35ZM179.48 155.16L179.48 155.16Q179.01 155.16 178.90 154.77Q178.78 154.37 178.94 153.40L178.94 153.40L180.72 143.86Q180.85 143.21 180.60 143.05Q180.35 142.89 179.54 143.28L179.54 143.28Q179.46 143.32 179.42 143.21Q179.37 143.10 179.45 143.08L179.45 143.08L181.77 141.95Q181.84 141.91 181.91 141.99Q181.98 142.06 181.97 142.09L181.97 142.09L179.88 153.40Q179.77 153.94 179.86 154.19Q179.95 154.44 180.17 154.44L180.17 154.44Q180.36 154.44 180.67 154.22Q180.98 153.99 181.35 153.61L181.35 153.61Q181.43 153.54 181.50 153.61Q181.57 153.69 181.50 153.76L181.50 153.76Q180.92 154.42 180.44 154.79Q179.95 155.16 179.48 155.16Z" fill="#a08840"/>
  <line x1="420" y1="148" x2="448" y2="148" stroke="#d4a930" stroke-width="0.5" opacity="0.3"/>
  <g transform="translate(460,148)"><line x1="0" y1="-5" x2="0" y2="5" stroke="#d4a930" stroke-width="0.8" opacity="0.6"/><line x1="-5" y1="0" x2="5" y2="0" stroke="#d4a930" stroke-width="0.8" opacity="0.6"/><line x1="-3.5" y1="-3.5" x2="3.5" y2="3.5" stroke="#d4a930" stroke-width="0.5" opacity="0.4"/><line x1="3.5" y1="-3.5" x2="-3.5" y2="3.5" stroke="#d4a930" stroke-width="0.5" opacity="0.4"/><circle cx="0" cy="0" r="1" fill="#ff9050" opacity="0.8"/></g>
  <path d="M507.12 153.14L507.12 153.14Q506.07 153.14 505.17 152.75Q504.27 152.37 503.61 151.68Q502.94 151.00 502.58 150.09Q502.22 149.18 502.22 148.14L502.22 148.14Q502.22 147.09 502.58 146.18Q502.94 145.27 503.61 144.59Q504.27 143.91 505.16 143.53Q506.05 143.14 507.10 143.14L507.10 143.14Q508.25 143.14 509.12 143.54Q509.99 143.93 510.66 144.60L510.66 144.60L509.75 145.51Q509.29 144.99 508.62 144.70Q507.96 144.40 507.10 144.40L507.10 144.40Q506.33 144.40 505.69 144.68Q505.04 144.95 504.57 145.45Q504.09 145.96 503.83 146.64Q503.57 147.33 503.57 148.14L503.57 148.14Q503.57 148.95 503.83 149.64Q504.09 150.33 504.57 150.83Q505.04 151.33 505.69 151.61Q506.33 151.88 507.10 151.88L507.10 151.88Q508.01 151.88 508.68 151.58Q509.36 151.28 509.82 150.76L509.82 150.76L510.73 151.66Q510.06 152.36 509.15 152.75Q508.25 153.14 507.12 153.14ZM518.65 153L517.34 153L517.34 143.28L518.65 143.28L518.65 153ZM524.93 153L523.61 153L523.61 143.28L524.93 143.28L524.93 153ZM523.93 148.58L518.23 148.58L518.23 147.37L523.93 147.37L523.93 148.58ZM533.54 153L532.22 153L532.22 143.28L533.54 143.28L533.54 153ZM545.24 153.14L545.24 153.14Q544.19 153.14 543.30 152.75Q542.40 152.37 541.74 151.68Q541.07 151.00 540.71 150.09Q540.34 149.18 540.34 148.14L540.34 148.14Q540.34 147.09 540.71 146.18Q541.07 145.27 541.74 144.59Q542.40 143.91 543.29 143.53Q544.18 143.14 545.23 143.14L545.23 143.14Q546.38 143.14 547.25 143.54Q548.11 143.93 548.79 144.60L548.79 144.60L547.88 145.51Q547.41 144.99 546.75 144.70Q546.08 144.40 545.23 144.40L545.23 144.40Q544.46 144.40 543.82 144.68Q543.17 144.95 542.70 145.45Q542.22 145.96 541.96 146.64Q541.70 147.33 541.70 148.14L541.70 148.14Q541.70 148.95 541.96 149.64Q542.22 150.33 542.70 150.83Q543.17 151.33 543.82 151.61Q544.46 151.88 545.23 151.88L545.23 151.88Q546.14 151.88 546.81 151.58Q547.48 151.28 547.95 150.76L547.95 150.76L548.86 151.66Q548.18 152.36 547.28 152.75Q546.38 153.14 545.24 153.14ZM556.15 153L554.75 153L558.73 143.28L559.68 143.28L563.64 153L562.21 153L558.95 144.78L559.44 144.78L556.15 153ZM561.75 150.80L556.64 150.80L556.64 149.65L561.75 149.65L561.75 150.80ZM574.61 153.14L574.61 153.14Q573.58 153.14 572.69 152.75Q571.81 152.37 571.14 151.68Q570.48 151.00 570.10 150.09Q569.72 149.18 569.72 148.13L569.72 148.13Q569.72 147.08 570.10 146.18Q570.48 145.27 571.15 144.59Q571.82 143.90 572.72 143.52Q573.63 143.14 574.69 143.14L574.69 143.14Q575.85 143.14 576.83 143.59Q577.81 144.04 578.47 144.88L578.47 144.88L577.56 145.79Q577.10 145.12 576.34 144.76Q575.59 144.40 574.69 144.40L574.69 144.40Q573.63 144.40 572.81 144.88Q571.99 145.36 571.53 146.20Q571.08 147.04 571.08 148.13L571.08 148.13Q571.08 149.23 571.54 150.07Q572.00 150.91 572.79 151.39Q573.57 151.87 574.58 151.87L574.58 151.87Q575.60 151.87 576.35 151.47Q577.10 151.08 577.50 150.32Q577.91 149.56 577.91 148.45L577.91 148.45L578.71 149.02L574.51 149.02L574.51 147.82L579.27 147.82L579.27 148.02Q579.27 149.71 578.67 150.85Q578.08 151.99 577.02 152.57Q575.96 153.14 574.61 153.14ZM590.46 153.14L590.46 153.14Q589.42 153.14 588.52 152.75Q587.63 152.37 586.96 151.68Q586.28 150.98 585.91 150.07Q585.54 149.16 585.54 148.13L585.54 148.13Q585.54 147.08 585.91 146.18Q586.28 145.27 586.95 144.59Q587.61 143.90 588.50 143.52Q589.39 143.14 590.43 143.14L590.43 143.14Q591.46 143.14 592.35 143.52Q593.24 143.90 593.91 144.59Q594.59 145.27 594.96 146.18Q595.34 147.09 595.34 148.14L595.34 148.14Q595.34 149.18 594.96 150.09Q594.59 151.00 593.92 151.68Q593.26 152.37 592.37 152.75Q591.48 153.14 590.46 153.14ZM590.43 151.88L590.43 151.88Q591.48 151.88 592.27 151.40Q593.06 150.91 593.52 150.07Q593.98 149.22 593.98 148.13L593.98 148.13Q593.98 147.32 593.72 146.64Q593.45 145.96 592.98 145.45Q592.50 144.95 591.86 144.68Q591.21 144.40 590.43 144.40L590.43 144.40Q589.39 144.40 588.60 144.88Q587.81 145.36 587.35 146.20Q586.90 147.04 586.90 148.13L586.90 148.13Q586.90 148.94 587.16 149.63Q587.42 150.33 587.89 150.82Q588.36 151.32 589.01 151.60Q589.66 151.88 590.43 151.88Z" fill="#a08840"/>
</svg>
