<svg width="1200" height="630" viewBox="0 0 1200 630" xmlns="http://www.w3.org/2000/svg">
  <defs>
    <linearGradient id="jp-gradient" x1="0%" y1="0%" x2="100%" y2="100%">
      <stop offset="0%" stop-color="#e0a520"/>
      <stop offset="20%" stop-color="#e8b020"/>
      <stop offset="45%" stop-color="#f0a830"/>
      <stop offset="70%" stop-color="#f09040"/>
      <stop offset="100%" stop-color="#ee8045"/>
    </linearGradient>
  </defs>
  <rect width="1200" height="630" fill="url(#jp-gradient)"/>

  <!-- Background: ghosted J watermark + faint large starburst -->
  <g opacity="0.06">
    <g transform="translate(960,200)">
      <line x1="0" y1="-170" x2="0" y2="170" stroke="#ffffff" stroke-width="20.4" opacity="1"/>
    <line x1="-170" y1="0" x2="170" y2="0" stroke="#ffffff" stroke-width="20.4" opacity="1"/>
    <line x1="-119" y1="-119" x2="119" y2="119" stroke="#ffffff" stroke-width="12.467" opacity="0.7"/>
    <line x1="119" y1="-119" x2="-119" y2="119" stroke="#ffffff" stroke-width="12.467" opacity="0.7"/>
    <line x1="-45.333" y1="-164.333" x2="45.333" y2="164.333" stroke="#ffffff" stroke-width="6.8" opacity="0.4"/>
    <line x1="45.333" y1="-164.333" x2="-45.333" y2="164.333" stroke="#ffffff" stroke-width="6.8" opacity="0.4"/>
    <line x1="-164.333" y1="-45.333" x2="164.333" y2="45.333" stroke="#ffffff" stroke-width="6.8" opacity="0.4"/>
    <line x1="-164.333" y1="45.333" x2="164.333" y2="-45.333" stroke="#ffffff" stroke-width="6.8" opacity="0.4"/>
    <circle cx="0" cy="0" r="31.733" fill="#ffffff"/>
    </g>
  </g>
  <g opacity="0.05">
    <path d="M1061.52 119.58L1061.52 119.58Q1063.08 119.58 1063.08 122.70Q1063.08 125.82 1061.52 125.82L1061.52 125.82Q1048.52 125.82 1041.76 128.94Q1035 132.06 1032.92 139.86Q1030.84 147.66 1030.84 162.74L1030.84 162.74L1030.84 446.66Q1030.84 504.90 1001.98 537.66Q973.12 570.42 921.64 570.42L921.64 570.42Q902.40 570.42 889.66 562.36Q876.92 554.30 876.92 539.22L876.92 539.22Q876.92 529.86 883.16 521.28Q889.40 512.70 903.96 512.70L903.96 512.70Q916.44 512.70 923.20 519.72Q929.96 526.74 933.86 536.10Q937.76 545.46 941.14 552.48Q944.52 559.50 950.76 559.50L950.76 559.50Q961.68 559.50 966.88 542.08Q972.08 524.66 972.08 483.06L972.08 483.06L972.08 161.70Q972.08 146.62 968.96 139.08Q965.84 131.54 956.48 128.68Q947.12 125.82 928.40 125.82L928.40 125.82Q927.36 125.82 927.36 122.70Q927.36 119.58 928.40 119.58L928.40 119.58Q944.52 119.58 962.72 120.36Q980.92 121.14 1000.68 121.14L1000.68 121.14Q1018.88 121.14 1034.22 120.36Q1049.56 119.58 1061.52 119.58Z" fill="#ffffff"/>
  </g>

  <!-- Foreground wordmark -->
  <path d="M143.47 208L141.70 208L141.70 191.94L143.47 191.94L143.47 208ZM149.28 193.10L135.89 193.10L135.89 191.49L149.28 191.49L149.28 193.10ZM164.03 208L162.28 208L162.28 191.49L164.03 191.49L164.03 208ZM174.86 208L173.10 208L173.10 191.49L174.86 191.49L174.86 208ZM173.58 200.27L163.43 200.27L163.43 198.66L173.58 198.66L173.58 200.27ZM190.83 208L189.08 208L189.08 191.49L190.83 191.49L190.83 208ZM199.95 208L190.23 208L190.23 206.39L199.95 206.39L199.95 208ZM199.18 200.32L190.23 200.32L190.23 198.76L199.18 198.76L199.18 200.32ZM199.81 193.10L190.23 193.10L190.23 191.49L199.81 191.49L199.81 193.10Z" fill="#ffffff"/>
  <path d="M188.64 225.50L188.64 225.50Q189.18 225.50 189.18 226.58Q189.18 227.66 188.64 227.66L188.64 227.66Q184.14 227.66 181.80 228.74Q179.46 229.82 178.74 232.52Q178.02 235.22 178.02 240.44L178.02 240.44L178.02 338.72Q178.02 358.88 168.03 370.22Q158.04 381.56 140.22 381.56L140.22 381.56Q133.56 381.56 129.15 378.77Q124.74 375.98 124.74 370.76L124.74 370.76Q124.74 367.52 126.90 364.55Q129.06 361.58 134.10 361.58L134.10 361.58Q138.42 361.58 140.76 364.01Q143.10 366.44 144.45 369.68Q145.80 372.92 146.97 375.35Q148.14 377.78 150.30 377.78L150.30 377.78Q154.08 377.78 155.88 371.75Q157.68 365.72 157.68 351.32L157.68 351.32L157.68 240.08Q157.68 234.86 156.60 232.25Q155.52 229.64 152.28 228.65Q149.04 227.66 142.56 227.66L142.56 227.66Q142.20 227.66 142.20 226.58Q142.20 225.50 142.56 225.50L142.56 225.50Q148.14 225.50 154.44 225.77Q160.74 226.04 167.58 226.04L167.58 226.04Q173.88 226.04 179.19 225.77Q184.50 225.50 188.64 225.50ZM286.60 296.78L230.80 296.78L233.50 291.74L285.34 291.74L286.60 296.78ZM329.08 335.84L329.08 335.84Q329.98 335.84 329.98 336.92Q329.98 338 329.08 338L329.08 338Q323.68 338 317.83 337.64Q311.98 337.28 306.58 337.28L306.58 337.28Q300.46 337.28 295.96 337.64Q291.46 338 285.88 338L285.88 338Q285.16 338 285.16 336.92Q285.16 335.84 285.88 335.84L285.88 335.84Q293.26 335.84 294.43 332.87Q295.60 329.90 291.10 321.08L291.10 321.08L254.56 248.90L263.38 233.42L227.56 312.44Q222.70 323.24 227.38 329.54Q232.06 335.84 242.14 335.84L242.14 335.84Q243.04 335.84 243.04 336.92Q243.04 338 242.14 338L242.14 338Q236.74 338 232.24 337.64Q227.74 337.28 220.90 337.28L220.90 337.28Q213.88 337.28 209.65 337.64Q205.42 338 199.30 338L199.30 338Q198.58 338 198.58 336.92Q198.58 335.84 199.30 335.84L199.30 335.84Q204.16 335.84 207.67 333.77Q211.18 331.70 214.69 326.21Q218.20 320.72 222.70 310.64L222.70 310.64L261.76 224.78Q261.94 224.24 263.38 224.15Q264.82 224.06 265 224.78L265 224.78L310 313.34Q314.32 321.80 317.47 326.75Q320.62 331.70 323.41 333.77Q326.20 335.84 329.08 335.84ZM409.76 223.52L409.76 223.52Q415.16 223.52 421.01 224.06Q426.86 224.60 432.08 225.68Q437.30 226.76 440.90 228.38L440.90 228.38Q442.52 228.92 442.97 229.73Q443.42 230.54 443.60 232.52L443.60 232.52L445.94 257.54Q445.94 258.08 445.04 258.26Q444.14 258.44 443.78 257.72L443.78 257.72Q438.74 243.14 429.47 235.22Q420.20 227.30 406.88 227.30L406.88 227.30Q394.64 227.30 385.01 233.87Q375.38 240.44 369.89 252.50Q364.40 264.56 364.40 281.30L364.40 281.30Q364.40 293.90 367.64 304.07Q370.88 314.24 376.82 321.44Q382.76 328.64 390.86 332.51Q398.96 336.38 408.68 336.38L408.68 336.38Q421.46 336.38 429.83 329.45Q438.20 322.52 445.58 307.40L445.58 307.40Q445.94 306.86 446.75 307.04Q447.56 307.22 447.56 307.76L447.56 307.76L444.86 330.08Q444.68 332.24 444.23 332.87Q443.78 333.50 442.16 334.22L442.16 334.22Q433.52 337.28 424.97 338.72Q416.42 340.16 408.68 340.16L408.68 340.16Q389.24 340.16 374.12 332.87Q359 325.58 350.36 312.53Q341.72 299.48 341.72 282.56L341.72 282.56Q341.72 269.60 346.85 258.71Q351.98 247.82 361.25 239.99Q370.52 232.16 382.94 227.84Q395.36 223.52 409.76 223.52ZM478.02 323.42L478.02 323.42L478.02 240.08Q478.02 234.86 477.12 232.25Q476.22 229.64 473.43 228.65Q470.64 227.66 465.24 227.66L465.24 227.66Q464.70 227.66 464.70 226.58Q464.70 225.50 465.24 225.50L465.24 225.50Q469.92 225.50 475.68 225.77Q481.44 226.04 487.92 226.04L487.92 226.04Q494.76 226.04 500.52 225.77Q506.28 225.50 510.78 225.50L510.78 225.50Q511.32 225.50 511.32 226.58Q511.32 227.66 510.78 227.66L510.78 227.66Q505.38 227.66 502.68 228.74Q499.98 229.82 498.99 232.52Q498 235.22 498 240.44L498 240.44L498 323.42Q498 328.64 498.90 331.34Q499.80 334.04 502.50 334.94Q505.20 335.84 510.78 335.84L510.78 335.84Q511.50 335.84 511.50 336.92Q511.50 338 510.78 338L510.78 338Q506.10 338 500.43 337.82Q494.76 337.64 487.92 337.64L487.92 337.64Q481.44 337.64 475.50 337.82Q469.56 338 464.88 338L464.88 338Q464.52 338 464.52 336.92Q464.52 335.84 464.88 335.84L464.88 335.84Q470.46 335.84 473.25 334.94Q476.04 334.04 477.03 331.34Q478.02 328.64 478.02 323.42ZM525.54 311.90L525.54 311.90L500.88 278.60L515.28 264.74L542.82 301.82Q549.84 311.72 554.70 318.11Q559.56 324.50 562.89 328.19Q566.22 331.88 568.74 333.50Q571.26 335.12 573.69 335.48Q576.12 335.84 579 335.84L579 335.84Q579.54 335.84 579.54 336.92Q579.54 338 579 338L579 338Q571.08 338 566.22 338Q561.36 338 558.84 338L558.84 338Q556.14 338 554.16 338.18Q552.18 338.36 550.74 338.36L550.74 338.36Q548.40 338.36 546.60 337.46Q544.80 336.56 542.37 333.86Q539.94 331.16 535.98 325.94Q532.02 320.72 525.54 311.90ZM490.26 292.10L485.40 291.56L531.84 244.04Q538.50 237.38 536.79 232.52Q535.08 227.66 526.08 227.66L526.08 227.66Q525.54 227.66 525.54 226.58Q525.54 225.50 526.08 225.50L526.08 225.50Q530.94 225.50 535.98 225.77Q541.02 226.04 549.30 226.04L549.30 226.04Q557.94 226.04 562.98 225.77Q568.02 225.50 572.70 225.50L572.70 225.50Q573.24 225.50 573.24 226.58Q573.24 227.66 572.70 227.66L572.70 227.66Q564.42 227.66 554.52 232.43Q544.62 237.20 536.52 245.12L536.52 245.12L490.26 292.10ZM620.26 240.44L620.26 322.70Q620.26 328.10 621.43 330.89Q622.60 333.68 626.38 334.76Q630.16 335.84 637.54 335.84L637.54 335.84Q638.08 335.84 638.08 336.92Q638.08 338 637.54 338L637.54 338Q631.78 338 625.03 337.82Q618.28 337.64 610.36 337.64L610.36 337.64Q603.88 337.64 598.03 337.82Q592.18 338 587.50 338L587.50 338Q586.96 338 586.96 336.92Q586.96 335.84 587.50 335.84L587.50 335.84Q593.08 335.84 595.78 334.94Q598.48 334.04 599.38 331.34Q600.28 328.64 600.28 323.42L600.28 323.42L600.28 240.08Q600.28 234.86 599.38 232.25Q598.48 229.64 595.78 228.65Q593.08 227.66 587.50 227.66L587.50 227.66Q586.96 227.66 586.96 226.58Q586.96 225.50 587.50 225.50L587.50 225.50Q592.18 225.50 597.94 225.77Q603.70 226.04 610.18 226.04L610.18 226.04Q614.50 226.04 621.52 225.50Q628.54 224.96 634.66 224.96L634.66 224.96Q646 224.96 654.73 227.93Q663.46 230.90 668.68 237.38Q673.90 243.86 674.26 254.48L674.26 254.48Q674.62 263.66 671.29 270.50Q667.96 277.34 662.11 281.84Q656.26 286.34 649.15 288.59Q642.04 290.84 635.02 290.84L635.02 290.84Q633.22 290.84 630.97 290.66Q628.72 290.48 626.56 289.94L626.56 289.94Q626.02 289.76 626.20 288.59Q626.38 287.42 627.10 287.60L627.10 287.60Q628.54 287.96 630.34 288.14Q632.14 288.32 633.22 288.32L633.22 288.32Q638.44 288.32 642.76 285.08Q647.08 281.84 649.78 275.18Q652.48 268.52 652.48 258.62L652.48 258.62Q652.48 249.08 649.78 242.51Q647.08 235.94 641.86 232.43Q636.64 228.92 628.90 228.92L628.90 228.92Q625.66 228.92 623.77 229.82Q621.88 230.72 621.07 233.24Q620.26 235.76 620.26 240.44L620.26 240.44ZM750.80 340.16L750.80 340.16Q737.84 340.16 727.31 335.57Q716.78 330.98 709.31 322.88Q701.84 314.78 697.79 304.25Q693.74 293.72 693.74 281.84L693.74 281.84Q693.74 267.26 699.41 256.28Q705.08 245.30 714.44 238.01Q723.80 230.72 734.96 227.12Q746.12 223.52 757.10 223.52L757.10 223.52Q770.42 223.52 780.95 228.29Q791.48 233.06 798.86 241.16Q806.24 249.26 810.11 259.52Q813.98 269.78 813.98 280.58L813.98 280.58Q813.98 293.18 808.94 303.98Q803.90 314.78 795.17 322.88Q786.44 330.98 775.01 335.57Q763.58 340.16 750.80 340.16ZM756.74 335.66L756.74 335.66Q766.82 335.66 774.74 329.90Q782.66 324.14 787.25 312.98Q791.84 301.82 791.84 285.80L791.84 285.80Q791.84 269.24 786.80 256.28Q781.76 243.32 772.40 235.85Q763.04 228.38 749.90 228.38L749.90 228.38Q733.52 228.38 724.70 240.80Q715.88 253.22 715.88 275.18L715.88 275.18Q715.88 288.32 718.94 299.39Q722 310.46 727.49 318.65Q732.98 326.84 740.45 331.25Q747.92 335.66 756.74 335.66ZM866.76 229.64L866.76 229.64Q855.78 229.64 848.13 236.93Q840.48 244.22 835.98 257.54L835.98 257.54Q835.80 258.08 834.90 257.99Q834 257.90 834 257.36L834 257.36Q834.36 254.84 834.72 250.25Q835.08 245.66 835.53 240.26Q835.98 234.86 836.25 229.82Q836.52 224.78 836.52 221.54L836.52 221.54Q836.52 220.64 837.51 220.64Q838.50 220.64 838.50 221.54L838.50 221.54Q838.50 223.34 840.39 224.15Q842.28 224.96 844.71 225.23Q847.14 225.50 848.76 225.50L848.76 225.50Q864.24 226.04 884.94 226.04L884.94 226.04Q897.54 226.04 905.10 225.77Q912.66 225.50 919.68 225.50L919.68 225.50Q926.16 225.50 929.49 224.69Q932.82 223.88 933.72 221L933.72 221Q933.90 220.28 934.89 220.28Q935.88 220.28 935.88 221L935.88 221Q935.52 223.88 935.25 229.01Q934.98 234.14 934.71 239.81Q934.44 245.48 934.26 250.25Q934.08 255.02 934.08 257.36L934.08 257.36Q934.08 257.90 933.18 257.90Q932.28 257.90 932.10 257.36L932.10 257.36Q929.40 243.14 921.93 236.39Q914.46 229.64 903.84 229.64L903.84 229.64Q900.24 229.64 898.35 230.63Q896.46 231.62 895.83 233.96Q895.20 236.30 895.20 240.44L895.20 240.44L895.20 323.42Q895.20 328.64 896.28 331.34Q897.36 334.04 900.51 334.94Q903.66 335.84 910.14 335.84L910.14 335.84Q910.68 335.84 910.68 336.92Q910.68 338 910.14 338L910.14 338Q905.10 338 898.80 337.82Q892.50 337.64 884.94 337.64L884.94 337.64Q877.74 337.64 871.44 337.82Q865.14 338 859.92 338L859.92 338Q859.38 338 859.38 336.92Q859.38 335.84 859.92 335.84L859.92 335.84Q866.22 335.84 869.46 334.94Q872.70 334.04 873.87 331.34Q875.04 328.64 875.04 323.42L875.04 323.42L875.04 240.08Q875.04 236.12 874.41 233.87Q873.78 231.62 871.98 230.63Q870.18 229.64 866.76 229.64Z" fill="#ffffff"/>
  <path d="M140.42 438.99L140.42 438.99Q139.85 438.99 139.46 438.69Q139.08 438.38 139.14 437.65L139.14 437.65Q139.37 436.82 140.42 436.82L140.42 436.82Q141.10 436.82 141.75 436.78Q142.41 436.75 143.03 436.58Q143.66 436.40 144.23 436.02L144.23 436.02Q144.94 435.54 145.86 434.37Q146.79 433.20 147.82 431.68Q148.84 430.16 149.77 428.56Q150.70 426.96 151.35 425.55Q152.01 424.14 152.23 423.25L152.23 423.25Q152.46 422.32 152.39 421.55Q152.33 420.78 152.14 420.19Q151.94 419.60 151.78 419.14Q151.62 418.67 151.62 418.38L151.62 418.38Q151.62 417.90 151.94 417.62Q152.26 417.33 152.78 417.33L152.78 417.33Q153.45 417.33 153.72 417.81Q153.99 418.29 153.99 419.09L153.99 419.09Q153.99 420.24 153.48 421.86Q152.97 423.47 152.09 425.36Q151.21 427.25 150.07 429.15Q148.94 431.06 147.67 432.83Q146.41 434.61 145.10 435.98Q143.78 437.36 142.58 438.18Q141.38 438.99 140.42 438.99ZM148.42 431.12L146.82 433.62Q147.02 426.54 146.04 422.66Q145.06 418.77 143.21 418.77L143.21 418.77Q142.79 418.77 142.36 419.02Q141.93 419.28 141.61 419.95L141.61 419.95Q141.54 420.08 141.37 420.03Q141.19 419.98 141.22 419.86L141.22 419.86Q141.83 418.64 142.57 418Q143.30 417.36 144.20 417.36L144.20 417.36Q145.32 417.36 146.18 418.45Q147.05 419.54 147.59 421.44Q148.14 423.34 148.36 425.82Q148.58 428.30 148.42 431.12L148.42 431.12ZM160.10 430.45L160.10 430.45Q158.57 430.45 157.58 429.55Q156.58 428.66 156.23 427.15Q155.88 425.65 156.23 423.82L156.23 423.82Q156.58 421.94 157.58 420.45Q158.57 418.96 159.98 418.10Q161.38 417.23 162.95 417.23L162.95 417.23Q164.62 417.23 165.62 418.14Q166.63 419.06 166.97 420.54Q167.30 422.03 166.92 423.82L166.92 423.82Q166.54 425.84 165.46 427.34Q164.39 428.85 162.97 429.65Q161.54 430.45 160.10 430.45ZM161.22 429.65L161.22 429.65Q162.54 429.65 163.64 428.48Q164.74 427.31 165.13 425.23L165.13 425.23Q165.35 424.05 165.29 422.78Q165.22 421.52 164.84 420.43Q164.46 419.34 163.75 418.67Q163.05 418 162.02 418L162.02 418Q160.68 418 159.56 419.18Q158.44 420.37 158.02 422.45L158.02 422.45Q157.77 423.70 157.86 424.94Q157.96 426.19 158.36 427.26Q158.76 428.34 159.48 428.99Q160.20 429.65 161.22 429.65ZM172.14 430.42L172.14 430.42Q170.76 430.42 170.28 429.41Q169.80 428.40 170.25 426.19L170.25 426.19L171.40 420.50Q171.59 419.50 171.43 419.07Q171.27 418.64 170.89 418.64L170.89 418.64Q170.54 418.64 169.99 419.04Q169.45 419.44 168.78 420.11L168.78 420.11Q168.65 420.24 168.52 420.11Q168.39 419.98 168.52 419.86L168.52 419.86Q169.58 418.64 170.44 418Q171.30 417.36 172.14 417.36L172.14 417.36Q172.90 417.36 173.14 418.06Q173.38 418.77 173.03 420.50L173.03 420.50L172.01 425.58Q171.59 427.44 171.91 428.30Q172.23 429.17 173.16 429.17L173.16 429.17Q174.22 429.17 175.34 427.86Q176.46 426.54 177.46 424.02Q178.47 421.49 179.11 417.87L179.11 417.87L179.53 417.90Q178.89 421.65 177.75 424.46Q176.62 427.28 175.18 428.85Q173.74 430.42 172.14 430.42ZM178.38 430.29L178.38 430.29Q177.58 430.29 177.38 429.60Q177.19 428.91 177.48 427.22L177.48 427.22L179.11 417.87Q179.21 417.39 180.14 417.39L180.14 417.39Q180.62 417.39 180.76 417.46Q180.90 417.52 180.90 417.58L180.90 417.58Q180.90 417.71 180.74 418.45Q180.58 419.18 180.42 420.02L180.42 420.02L179.11 427.15Q178.79 429.04 179.62 429.04L179.62 429.04Q180.01 429.04 180.58 428.66Q181.16 428.27 181.86 427.57L181.86 427.57Q181.96 427.44 182.09 427.58Q182.22 427.73 182.12 427.82L182.12 427.82Q181.00 429.07 180.12 429.68Q179.24 430.29 178.38 430.29ZM189.00 438.80L189.00 438.80Q187.88 438.80 187.38 438.37Q186.89 437.94 186.98 437.42L186.98 437.42Q187.02 437.01 187.34 436.72Q187.66 436.43 188.14 436.43L188.14 436.43Q188.65 436.43 188.87 436.70Q189.10 436.98 189.19 437.33Q189.29 437.68 189.43 437.95Q189.58 438.22 189.96 438.22L189.96 438.22Q190.34 438.22 190.62 437.73Q190.89 437.23 191.18 435.79Q191.46 434.35 191.88 431.50L191.88 431.50L193.51 420.21Q193.64 419.41 193.56 419.04Q193.48 418.67 193.06 418.56Q192.65 418.45 191.75 418.45L191.75 418.45Q191.62 418.45 191.66 418.26Q191.69 418.06 191.78 418.06L191.78 418.06Q192.94 418.06 193.42 417.74Q193.90 417.42 194.02 416.62L194.02 416.62Q194.50 413.71 195.06 411.81Q195.62 409.90 196.36 408.80Q197.10 407.70 198.09 407.23Q199.08 406.77 200.49 406.77L200.49 406.77Q201.64 406.77 202.25 407.26Q202.86 407.76 202.79 408.43L202.79 408.43Q202.70 408.91 202.38 409.14Q202.06 409.36 201.67 409.36L201.67 409.36Q201.16 409.36 200.95 409.04Q200.74 408.72 200.60 408.30Q200.46 407.89 200.23 407.57Q200.01 407.25 199.50 407.25L199.50 407.25Q198.25 407.25 197.35 409.44Q196.46 411.63 195.82 415.95L195.82 415.95L193.67 430.67Q193.22 433.71 192.65 435.50Q192.07 437.30 191.19 438.05Q190.31 438.80 189.00 438.80ZM197.96 419.06L197.96 419.06Q197.61 418.99 197.05 418.91Q196.49 418.83 195.83 418.77Q195.18 418.70 194.47 418.70L194.47 418.70L194.54 417.97Q195.24 417.97 196.15 417.90Q197.06 417.84 197.83 417.79Q198.60 417.74 198.82 417.74L198.82 417.74Q198.98 417.74 199.03 417.82Q199.08 417.90 199.05 418.03L199.05 418.03Q198.98 418.29 198.65 418.69Q198.31 419.09 197.96 419.06ZM203.21 430.45L203.21 430.45Q201.67 430.45 200.68 429.55Q199.69 428.66 199.34 427.15Q198.98 425.65 199.34 423.82L199.34 423.82Q199.69 421.94 200.68 420.45Q201.67 418.96 203.08 418.10Q204.49 417.23 206.06 417.23L206.06 417.23Q207.72 417.23 208.73 418.14Q209.74 419.06 210.07 420.54Q210.41 422.03 210.02 423.82L210.02 423.82Q209.64 425.84 208.57 427.34Q207.50 428.85 206.07 429.65Q204.65 430.45 203.21 430.45ZM204.33 429.65L204.33 429.65Q205.64 429.65 206.74 428.48Q207.85 427.31 208.23 425.23L208.23 425.23Q208.46 424.05 208.39 422.78Q208.33 421.52 207.94 420.43Q207.56 419.34 206.86 418.67Q206.15 418 205.13 418L205.13 418Q203.78 418 202.66 419.18Q201.54 420.37 201.13 422.45L201.13 422.45Q200.87 423.70 200.97 424.94Q201.06 426.19 201.46 427.26Q201.86 428.34 202.58 428.99Q203.30 429.65 204.33 429.65ZM215.24 430.42L215.24 430.42Q213.86 430.42 213.38 429.41Q212.90 428.40 213.35 426.19L213.35 426.19L214.50 420.50Q214.70 419.50 214.54 419.07Q214.38 418.64 213.99 418.64L213.99 418.64Q213.64 418.64 213.10 419.04Q212.55 419.44 211.88 420.11L211.88 420.11Q211.75 420.24 211.62 420.11Q211.50 419.98 211.62 419.86L211.62 419.86Q212.68 418.64 213.54 418Q214.41 417.36 215.24 417.36L215.24 417.36Q216.01 417.36 216.25 418.06Q216.49 418.77 216.14 420.50L216.14 420.50L215.11 425.58Q214.70 427.44 215.02 428.30Q215.34 429.17 216.26 429.17L216.26 429.17Q217.32 429.17 218.44 427.86Q219.56 426.54 220.57 424.02Q221.58 421.49 222.22 417.87L222.22 417.87L222.63 417.90Q221.99 421.65 220.86 424.46Q219.72 427.28 218.28 428.85Q216.84 430.42 215.24 430.42ZM221.48 430.29L221.48 430.29Q220.68 430.29 220.49 429.60Q220.30 428.91 220.58 427.22L220.58 427.22L222.22 417.87Q222.31 417.39 223.24 417.39L223.24 417.39Q223.72 417.39 223.86 417.46Q224.01 417.52 224.01 417.58L224.01 417.58Q224.01 417.71 223.85 418.45Q223.69 419.18 223.53 420.02L223.53 420.02L222.22 427.15Q221.90 429.04 222.73 429.04L222.73 429.04Q223.11 429.04 223.69 428.66Q224.26 428.27 224.97 427.57L224.97 427.57Q225.06 427.44 225.19 427.58Q225.32 427.73 225.22 427.82L225.22 427.82Q224.10 429.07 223.22 429.68Q222.34 430.29 221.48 430.29ZM236.68 430.29L236.68 430.29Q235.85 430.29 235.64 429.58Q235.43 428.88 235.75 427.15L235.75 427.15L236.68 422.06Q237.42 418.48 235.50 418.48L235.50 418.48Q234.47 418.48 233.35 419.79Q232.23 421.10 231.22 423.63Q230.22 426.16 229.54 429.78L229.54 429.78L229.16 429.74Q229.83 426 230.95 423.18Q232.07 420.37 233.53 418.80Q234.98 417.23 236.55 417.23L236.55 417.23Q237.93 417.23 238.39 418.22Q238.86 419.22 238.41 421.46L238.41 421.46L237.35 427.15Q237.19 428.11 237.35 428.56Q237.51 429.01 237.90 429.01L237.90 429.01Q238.25 429.01 238.79 428.61Q239.34 428.21 240.01 427.54L240.01 427.54Q240.10 427.41 240.25 427.54Q240.39 427.66 240.26 427.79L240.26 427.79Q239.24 428.98 238.38 429.63Q237.51 430.29 236.68 430.29ZM228.52 430.26L228.52 430.26Q228.07 430.26 227.93 430.21Q227.78 430.16 227.78 430.06L227.78 430.06Q227.78 429.94 227.96 429.20Q228.14 428.46 228.26 427.63L228.26 427.63L229.58 420.50Q229.90 418.61 229.03 418.61L229.03 418.61Q228.68 418.61 228.10 418.99Q227.53 419.38 226.82 420.08L226.82 420.08Q226.73 420.21 226.58 420.06Q226.44 419.92 226.57 419.82L226.57 419.82Q227.66 418.58 228.57 417.97Q229.48 417.36 230.31 417.36L230.31 417.36Q231.08 417.36 231.29 418.05Q231.50 418.74 231.21 420.43L231.21 420.43L229.54 429.78Q229.48 430.26 228.52 430.26ZM244.14 430.42L244.14 430.42Q243.34 430.42 242.66 429.98Q241.99 429.55 241.69 428.58Q241.38 427.60 241.64 425.97L241.64 425.97Q241.96 424.18 242.81 422.61Q243.66 421.04 244.86 419.82Q246.06 418.61 247.43 417.92Q248.81 417.23 250.22 417.23L250.22 417.23Q251.11 417.23 251.88 417.73Q252.65 418.22 252.74 419.38L252.74 419.38L251.40 422.13Q250.44 424.53 249.27 426.40Q248.10 428.27 246.82 429.34Q245.54 430.42 244.14 430.42ZM245.16 428.88L245.16 428.88Q246.22 428.88 247.21 428.05Q248.20 427.22 249.02 425.95Q249.83 424.69 250.38 423.38Q250.92 422.06 251.11 421.10L251.11 421.10Q251.37 419.76 250.78 419.06Q250.18 418.35 249.06 418.35L249.06 418.35Q247.05 418.38 245.50 420Q243.94 421.62 243.40 424.69L243.40 424.69Q243.05 426.80 243.58 427.84Q244.10 428.88 245.16 428.88ZM250.89 430.29L250.89 430.29Q250.06 430.29 249.86 429.58Q249.67 428.88 249.99 427.15L249.99 427.15L253.19 410.19Q253.38 409.04 252.90 408.75Q252.42 408.46 250.95 409.17L250.95 409.17Q250.82 409.23 250.76 409.04Q250.70 408.85 250.82 408.82L250.82 408.82L254.98 406.80Q255.08 406.74 255.21 406.86Q255.34 406.99 255.30 407.06L255.30 407.06L251.59 427.15Q251.40 428.11 251.58 428.56Q251.75 429.01 252.14 429.01L252.14 429.01Q252.49 429.01 253.03 428.61Q253.58 428.21 254.25 427.54L254.25 427.54Q254.34 427.41 254.49 427.54Q254.63 427.66 254.50 427.79L254.50 427.79Q253.42 428.98 252.58 429.63Q251.75 430.29 250.89 430.29ZM265.70 430.35L265.70 430.35Q264.49 430.35 263.59 429.78Q262.70 429.20 262.82 428.37L262.82 428.37Q262.89 427.92 263.18 427.70Q263.46 427.47 263.78 427.47L263.78 427.47Q264.20 427.47 264.41 427.81Q264.62 428.14 264.84 428.56Q265.06 428.98 265.48 429.31Q265.90 429.65 266.66 429.65L266.66 429.65Q267.53 429.65 268.06 429.17Q268.58 428.69 268.71 427.70L268.71 427.70Q268.84 426.70 268.42 425.98Q268.01 425.26 267.29 424.69Q266.57 424.11 265.88 423.52Q265.19 422.93 264.79 422.19Q264.39 421.46 264.58 420.46L264.58 420.46Q264.78 419.47 265.43 418.77Q266.09 418.06 267 417.70Q267.91 417.33 268.84 417.33L268.84 417.33Q269.99 417.33 270.76 417.79Q271.53 418.26 271.43 418.93L271.43 418.93Q271.34 419.38 271.03 419.58Q270.73 419.79 270.44 419.79L270.44 419.79Q269.99 419.79 269.74 419.54Q269.48 419.28 269.24 418.93Q269 418.58 268.66 418.30Q268.33 418.03 267.69 418.03L267.69 418.03Q267.08 418.03 266.60 418.35Q266.12 418.67 266.02 419.31L266.02 419.31Q265.86 420.27 266.30 420.98Q266.73 421.68 267.43 422.29Q268.14 422.90 268.84 423.52Q269.54 424.14 269.94 424.91Q270.34 425.68 270.18 426.70L270.18 426.70Q270.02 427.63 269.40 428.48Q268.78 429.33 267.82 429.84Q266.86 430.35 265.70 430.35ZM277.06 430.45L277.06 430.45Q275.53 430.45 274.54 429.55Q273.54 428.66 273.19 427.15Q272.84 425.65 273.19 423.82L273.19 423.82Q273.54 421.94 274.54 420.45Q275.53 418.96 276.94 418.10Q278.34 417.23 279.91 417.23L279.91 417.23Q281.58 417.23 282.58 418.14Q283.59 419.06 283.93 420.54Q284.26 422.03 283.88 423.82L283.88 423.82Q283.50 425.84 282.42 427.34Q281.35 428.85 279.93 429.65Q278.50 430.45 277.06 430.45ZM278.18 429.65L278.18 429.65Q279.50 429.65 280.60 428.48Q281.70 427.31 282.09 425.23L282.09 425.23Q282.31 424.05 282.25 422.78Q282.18 421.52 281.80 420.43Q281.42 419.34 280.71 418.67Q280.01 418 278.98 418L278.98 418Q277.64 418 276.52 419.18Q275.40 420.37 274.98 422.45L274.98 422.45Q274.73 423.70 274.82 424.94Q274.92 426.19 275.32 427.26Q275.72 428.34 276.44 428.99Q277.16 429.65 278.18 429.65ZM302.38 430.29L302.38 430.29Q301.58 430.29 301.37 429.58Q301.16 428.88 301.48 427.15L301.48 427.15L302.41 422.06Q302.73 420.24 302.47 419.36Q302.22 418.48 301.32 418.48L301.32 418.48Q300.36 418.48 299.26 419.78Q298.15 421.07 297.18 423.60Q296.20 426.13 295.53 429.78L295.53 429.78L295.18 429.74Q295.82 426 296.92 423.17Q298.02 420.34 299.43 418.78Q300.84 417.23 302.38 417.23L302.38 417.23Q303.66 417.23 304.09 418.22Q304.52 419.22 304.10 421.46L304.10 421.46L303.08 427.15Q302.92 428.11 303.06 428.56Q303.21 429.01 303.59 429.01L303.59 429.01Q303.98 429.01 304.50 428.61Q305.03 428.21 305.70 427.54L305.70 427.54Q305.83 427.41 305.96 427.54Q306.09 427.66 305.96 427.79L305.96 427.79Q304.94 428.98 304.07 429.63Q303.21 430.29 302.38 430.29ZM287.50 430.26L287.50 430.26Q287.02 430.26 286.89 430.21Q286.76 430.16 286.76 430.06L286.76 430.06Q286.76 429.94 286.92 429.23Q287.08 428.53 287.21 427.79L287.21 427.79L288.55 420.50Q288.87 418.61 288.01 418.61L288.01 418.61Q287.66 418.61 287.08 418.99Q286.50 419.38 285.80 420.08L285.80 420.08Q285.70 420.21 285.56 420.06Q285.42 419.92 285.54 419.82L285.54 419.82Q286.63 418.58 287.54 417.97Q288.46 417.36 289.29 417.36L289.29 417.36Q290.06 417.36 290.26 418.05Q290.47 418.74 290.18 420.43L290.18 420.43L288.52 429.78Q288.39 430.26 287.50 430.26ZM294.54 430.26L294.54 430.26Q294.09 430.26 293.94 430.21Q293.80 430.16 293.80 430.06L293.80 430.06Q293.80 429.94 293.98 429.15Q294.15 428.37 294.28 427.63L294.28 427.63L295.34 422.06Q295.59 420.24 295.35 419.36Q295.11 418.48 294.28 418.48L294.28 418.48Q293.32 418.48 292.22 419.79Q291.11 421.10 290.14 423.65Q289.16 426.19 288.52 429.78L288.52 429.78L288.10 429.74Q288.74 426 289.85 423.18Q290.95 420.37 292.38 418.80Q293.80 417.23 295.34 417.23L295.34 417.23Q296.55 417.23 297.02 418.21Q297.48 419.18 297.03 421.46L297.03 421.46L295.53 429.78Q295.46 430.26 294.54 430.26ZM311.66 430.38L311.66 430.38Q309.96 430.38 308.98 429.49Q308.01 428.59 307.70 427.15Q307.40 425.71 307.72 424.08L307.72 424.08Q307.91 422.90 308.57 421.66Q309.22 420.43 310.22 419.44Q311.21 418.45 312.42 417.84Q313.64 417.23 315.02 417.23L315.02 417.23Q316.20 417.23 316.76 417.70Q317.32 418.16 317.19 418.96L317.19 418.96Q317.03 419.73 316.30 420.43Q315.56 421.14 314.41 421.70Q313.26 422.26 311.83 422.67Q310.41 423.09 308.87 423.25L308.87 423.25L308.94 422.83Q311.40 422.48 313.08 421.70Q314.76 420.91 315.05 419.63L315.05 419.63Q315.27 418.77 314.76 418.43Q314.25 418.10 313.61 418.10L313.61 418.10Q312.52 418.10 311.72 418.77Q310.92 419.44 310.41 420.56Q309.90 421.68 309.67 423.02L309.67 423.02Q309.32 424.82 309.59 426.22Q309.86 427.63 310.70 428.46Q311.53 429.30 312.87 429.30L312.87 429.30Q313.64 429.30 314.47 429.07Q315.30 428.85 316.10 428.24L316.10 428.24Q316.20 428.18 316.31 428.30Q316.42 428.43 316.33 428.53L316.33 428.53Q315.11 429.52 313.96 429.95Q312.81 430.38 311.66 430.38ZM321.54 430.38L321.54 430.38Q320.94 430.38 320.38 430.14Q319.82 429.90 319.54 429.31Q319.27 428.72 319.46 427.66L319.46 427.66L320.84 420.21Q321.06 419.02 320.89 418.74Q320.71 418.45 319.75 418.45L319.75 418.45Q319.62 418.45 319.66 418.26Q319.69 418.06 319.78 418.06L319.78 418.06Q320.90 418.06 321.70 417.34Q322.50 416.62 322.76 415.60L322.76 415.60Q322.79 415.50 323.06 415.50Q323.34 415.50 323.30 415.60L323.30 415.60L321.32 426.67Q321.06 427.98 321.43 428.59Q321.80 429.20 322.79 429.20L322.79 429.20Q323.72 429.20 324.46 428.77Q325.19 428.34 325.86 427.76L325.86 427.76Q325.93 427.70 326.07 427.82Q326.22 427.95 326.12 428.02L326.12 428.02Q324.68 429.30 323.59 429.84Q322.50 430.38 321.54 430.38ZM326.15 419.06L326.15 419.06Q326.09 419.06 325.45 418.98Q324.81 418.90 323.96 418.82Q323.11 418.74 322.31 418.74L322.31 418.74L322.38 417.97Q323.21 417.97 324.17 417.90Q325.13 417.84 325.93 417.79Q326.73 417.74 326.95 417.74L326.95 417.74Q327.11 417.74 327.16 417.82Q327.21 417.90 327.18 418.03L327.18 418.03Q327.14 418.29 326.81 418.67Q326.47 419.06 326.15 419.06ZM329.10 430.26L329.10 430.26Q328.65 430.26 328.50 430.21Q328.36 430.16 328.36 430.06L328.36 430.06Q328.36 429.94 328.54 429.20Q328.71 428.46 328.84 427.63L328.84 427.63L332.10 410.19Q332.33 409.04 331.85 408.75Q331.37 408.46 329.93 409.17L329.93 409.17Q329.80 409.23 329.72 409.04Q329.64 408.85 329.77 408.82L329.77 408.82L333.90 406.80Q334.02 406.74 334.15 406.86Q334.28 406.99 334.25 407.06L334.25 407.06L330.12 429.78Q330.06 430.26 329.10 430.26ZM337.26 430.29L337.26 430.29Q336.42 430.29 336.22 429.58Q336.01 428.88 336.33 427.15L336.33 427.15L337.26 422.06Q337.61 420.24 337.32 419.36Q337.03 418.48 336.07 418.48L336.07 418.48Q335.05 418.48 333.93 419.79Q332.81 421.10 331.80 423.63Q330.79 426.16 330.12 429.78L330.12 429.78L329.74 429.74Q330.41 426 331.53 423.18Q332.65 420.37 334.10 418.80Q335.56 417.23 337.13 417.23L337.13 417.23Q338.50 417.23 338.94 418.22Q339.37 419.22 338.98 421.46L338.98 421.46L337.93 427.15Q337.77 428.11 337.91 428.56Q338.06 429.01 338.47 429.01L338.47 429.01Q338.82 429.01 339.37 428.61Q339.91 428.21 340.58 427.54L340.58 427.54Q340.71 427.41 340.84 427.54Q340.97 427.66 340.84 427.79L340.84 427.79Q339.82 428.98 338.95 429.63Q338.09 430.29 337.26 430.29ZM344.84 430.29L344.84 430.29Q344.07 430.29 343.82 429.62Q343.56 428.94 343.91 427.15L343.91 427.15L345.22 420.50Q345.58 418.61 344.68 418.61L344.68 418.61Q344.33 418.61 343.74 418.99Q343.14 419.38 342.47 420.08L342.47 420.08Q342.38 420.21 342.23 420.06Q342.09 419.92 342.22 419.82L342.22 419.82Q343.30 418.58 344.20 417.97Q345.10 417.36 345.93 417.36L345.93 417.36Q346.73 417.36 346.95 418.05Q347.18 418.74 346.82 420.43L346.82 420.43L345.54 427.15Q345.35 428.11 345.51 428.56Q345.67 429.01 346.06 429.01L346.06 429.01Q346.41 429.01 346.98 428.64Q347.56 428.27 348.23 427.60L348.23 427.60Q348.36 427.47 348.49 427.60Q348.62 427.73 348.49 427.86L348.49 427.86Q347.43 429.04 346.55 429.66Q345.67 430.29 344.84 430.29ZM346.86 413.58L346.86 413.58Q346.22 413.58 345.85 413.23Q345.48 412.88 345.48 412.21L345.48 412.21Q345.48 411.60 345.85 411.25Q346.22 410.90 346.86 410.90L346.86 410.90Q347.53 410.90 347.86 411.25Q348.20 411.60 348.20 412.21L348.20 412.21Q348.20 413.58 346.86 413.58ZM360.04 430.29L360.04 430.29Q359.21 430.29 359 429.58Q358.79 428.88 359.11 427.15L359.11 427.15L360.04 422.06Q360.78 418.48 358.86 418.48L358.86 418.48Q357.83 418.48 356.71 419.79Q355.59 421.10 354.58 423.63Q353.58 426.16 352.90 429.78L352.90 429.78L352.52 429.74Q353.19 426 354.31 423.18Q355.43 420.37 356.89 418.80Q358.34 417.23 359.91 417.23L359.91 417.23Q361.29 417.23 361.75 418.22Q362.22 419.22 361.77 421.46L361.77 421.46L360.71 427.15Q360.55 428.11 360.71 428.56Q360.87 429.01 361.26 429.01L361.26 429.01Q361.61 429.01 362.15 428.61Q362.70 428.21 363.37 427.54L363.37 427.54Q363.46 427.41 363.61 427.54Q363.75 427.66 363.62 427.79L363.62 427.79Q362.60 428.98 361.74 429.63Q360.87 430.29 360.04 430.29ZM351.88 430.26L351.88 430.26Q351.43 430.26 351.29 430.21Q351.14 430.16 351.14 430.06L351.14 430.06Q351.14 429.94 351.32 429.20Q351.50 428.46 351.62 427.63L351.62 427.63L352.94 420.50Q353.26 418.61 352.39 418.61L352.39 418.61Q352.04 418.61 351.46 418.99Q350.89 419.38 350.18 420.08L350.18 420.08Q350.09 420.21 349.94 420.06Q349.80 419.92 349.93 419.82L349.93 419.82Q351.02 418.58 351.93 417.97Q352.84 417.36 353.67 417.36L353.67 417.36Q354.44 417.36 354.65 418.05Q354.86 418.74 354.57 420.43L354.57 420.43L352.90 429.78Q352.84 430.26 351.88 430.26ZM367.37 438.99L367.37 438.99Q365.64 438.99 364.50 438.45Q363.37 437.90 362.87 437.02Q362.38 436.14 362.60 435.15L362.60 435.15Q362.92 433.74 364.38 432.67Q365.83 431.60 367.72 430.58L367.72 430.58L367.94 430.83Q367.21 431.28 366.42 431.78Q365.64 432.27 365.08 432.90Q364.52 433.52 364.39 434.42L364.39 434.42Q364.23 435.44 364.74 436.29Q365.26 437.14 366.33 437.62Q367.40 438.10 368.90 438.10L368.90 438.10Q370.63 438.10 371.56 437.38Q372.49 436.66 372.55 435.60L372.55 435.60Q372.58 434.74 372.09 434.10Q371.59 433.46 370.79 432.96Q369.99 432.46 369.11 432.03Q368.23 431.60 367.48 431.14Q366.73 430.67 366.31 430.11Q365.90 429.55 366.02 428.78L366.02 428.78Q366.18 428.08 366.78 427.44Q367.37 426.80 368.23 426.06L368.23 426.06L368.55 426.32Q368.20 426.51 367.90 426.94Q367.59 427.38 367.53 427.82L367.53 427.82Q367.43 428.50 367.90 429.01Q368.36 429.52 369.16 429.95Q369.96 430.38 370.84 430.82Q371.72 431.25 372.50 431.78Q373.29 432.30 373.74 433.01Q374.18 433.71 374.09 434.67L374.09 434.67Q373.99 435.82 373.03 436.80Q372.07 437.78 370.60 438.38Q369.13 438.99 367.37 438.99ZM368.78 426.86L368.78 426.86Q367.53 426.86 366.73 426.21Q365.93 425.55 365.66 424.48Q365.38 423.41 365.67 422.13L365.67 422.13Q365.93 420.78 366.71 419.73Q367.50 418.67 368.62 418.06Q369.74 417.46 371.02 417.46L371.02 417.46Q372.30 417.46 373.06 418.10Q373.83 418.74 374.09 419.79Q374.34 420.85 374.09 422.13L374.09 422.13Q373.80 423.57 372.97 424.62Q372.14 425.68 371.03 426.27Q369.93 426.86 368.78 426.86ZM369.58 426.26L369.58 426.26Q370.50 426.26 371.30 425.39Q372.10 424.53 372.36 422.99L372.36 422.99Q372.55 421.97 372.41 420.82Q372.26 419.66 371.74 418.85Q371.21 418.03 370.22 418.03L370.22 418.03Q369.26 418.03 368.44 418.96Q367.62 419.89 367.40 421.33L367.40 421.33Q367.21 422.45 367.38 423.60Q367.56 424.75 368.12 425.50Q368.68 426.26 369.58 426.26ZM372.20 418.93L372.20 418.93L372.17 418.70Q373.13 418.13 374.23 417.76Q375.34 417.39 376.23 417.39L376.23 417.39Q376.39 417.39 376.41 417.66Q376.42 417.94 376.34 418.26Q376.26 418.58 376.17 418.80Q376.07 419.02 375.98 418.96L375.98 418.96Q375.24 418.58 374.18 418.58Q373.13 418.58 372.20 418.93ZM386.79 430.35L386.79 430.35Q385.58 430.35 384.68 429.78Q383.78 429.20 383.91 428.37L383.91 428.37Q383.98 427.92 384.26 427.70Q384.55 427.47 384.87 427.47L384.87 427.47Q385.29 427.47 385.50 427.81Q385.70 428.14 385.93 428.56Q386.15 428.98 386.57 429.31Q386.98 429.65 387.75 429.65L387.75 429.65Q388.62 429.65 389.14 429.17Q389.67 428.69 389.80 427.70L389.80 427.70Q389.93 426.70 389.51 425.98Q389.10 425.26 388.38 424.69Q387.66 424.11 386.97 423.52Q386.28 422.93 385.88 422.19Q385.48 421.46 385.67 420.46L385.67 420.46Q385.86 419.47 386.52 418.77Q387.18 418.06 388.09 417.70Q389.00 417.33 389.93 417.33L389.93 417.33Q391.08 417.33 391.85 417.79Q392.62 418.26 392.52 418.93L392.52 418.93Q392.42 419.38 392.12 419.58Q391.82 419.79 391.53 419.79L391.53 419.79Q391.08 419.79 390.82 419.54Q390.57 419.28 390.33 418.93Q390.09 418.58 389.75 418.30Q389.42 418.03 388.78 418.03L388.78 418.03Q388.17 418.03 387.69 418.35Q387.21 418.67 387.11 419.31L387.11 419.31Q386.95 420.27 387.38 420.98Q387.82 421.68 388.52 422.29Q389.22 422.90 389.93 423.52Q390.63 424.14 391.03 424.91Q391.43 425.68 391.27 426.70L391.27 426.70Q391.11 427.63 390.49 428.48Q389.86 429.33 388.90 429.84Q387.94 430.35 386.79 430.35ZM396.90 437.97L391.40 438.80Q391.27 438.83 391.24 438.64Q391.21 438.45 391.34 438.42L391.34 438.42Q392.04 438.29 392.39 438.10Q392.74 437.90 392.94 437.41Q393.13 436.91 393.29 435.92L393.29 435.92L396.55 417.65Q396.55 417.55 396.78 417.36Q397.00 417.17 397.32 416.86Q397.64 416.56 397.90 416.18Q398.15 415.79 398.25 415.31L398.25 415.31Q398.31 415.18 398.47 415.22Q398.63 415.25 398.60 415.38L398.60 415.38L394.98 435.70Q394.76 437.01 395.13 437.39Q395.50 437.78 396.84 437.62L396.84 437.62Q396.97 437.55 397.02 437.74Q397.06 437.94 396.90 437.97L396.90 437.97ZM397.86 430.03L397.86 430.03Q396.68 430.03 396.09 429.94Q395.50 429.84 395.05 429.74L395.05 429.74L395.37 428.08Q395.98 428.50 396.78 428.82Q397.58 429.14 398.76 429.14L398.76 429.14Q400.20 429.14 401.18 428.32Q402.15 427.50 402.76 426.11Q403.37 424.72 403.56 422.96L403.56 422.96Q403.72 421.87 403.59 420.86Q403.46 419.86 402.89 419.22Q402.31 418.58 401.00 418.58L401.00 418.58Q399.53 418.58 398.04 419.44Q396.55 420.30 394.57 421.81L394.57 421.81Q394.47 421.87 394.34 421.71Q394.22 421.55 394.34 421.52L394.34 421.52Q396.26 419.82 398.33 418.62Q400.39 417.42 402.34 417.42L402.34 417.42Q404.14 417.42 404.92 418.58Q405.70 419.73 405.38 421.90L405.38 421.90Q405.16 423.54 404.42 425.01Q403.69 426.48 402.65 427.62Q401.61 428.75 400.36 429.39Q399.11 430.03 397.86 430.03ZM411.21 430.38L411.21 430.38Q409.51 430.38 408.54 429.49Q407.56 428.59 407.26 427.15Q406.95 425.71 407.27 424.08L407.27 424.08Q407.46 422.90 408.12 421.66Q408.78 420.43 409.77 419.44Q410.76 418.45 411.98 417.84Q413.19 417.23 414.57 417.23L414.57 417.23Q415.75 417.23 416.31 417.70Q416.87 418.16 416.74 418.96L416.74 418.96Q416.58 419.73 415.85 420.43Q415.11 421.14 413.96 421.70Q412.81 422.26 411.38 422.67Q409.96 423.09 408.42 423.25L408.42 423.25L408.49 422.83Q410.95 422.48 412.63 421.70Q414.31 420.91 414.60 419.63L414.60 419.63Q414.82 418.77 414.31 418.43Q413.80 418.10 413.16 418.10L413.16 418.10Q412.07 418.10 411.27 418.77Q410.47 419.44 409.96 420.56Q409.45 421.68 409.22 423.02L409.22 423.02Q408.87 424.82 409.14 426.22Q409.42 427.63 410.25 428.46Q411.08 429.30 412.42 429.30L412.42 429.30Q413.19 429.30 414.02 429.07Q414.86 428.85 415.66 428.24L415.66 428.24Q415.75 428.18 415.86 428.30Q415.98 428.43 415.88 428.53L415.88 428.53Q414.66 429.52 413.51 429.95Q412.36 430.38 411.21 430.38ZM422.25 430.42L422.25 430.42Q420.87 430.42 419.99 429.79Q419.11 429.17 418.66 428.16Q418.22 427.15 418.15 425.94Q418.09 424.72 418.34 423.54L418.34 423.54Q418.76 421.52 419.86 420.13Q420.97 418.74 422.39 417.98Q423.82 417.23 425.19 417.23L425.19 417.23Q425.96 417.23 426.62 417.47Q427.27 417.71 427.64 418.13Q428.01 418.54 427.94 419.12L427.94 419.12Q427.91 419.54 427.66 419.84Q427.40 420.14 426.89 420.14L426.89 420.14Q426.44 420.14 426.17 419.86Q425.90 419.57 425.74 419.12L425.74 419.12Q425.64 418.74 425.26 418.34Q424.87 417.94 424.07 417.94L424.07 417.94Q423.02 417.94 422.25 418.56Q421.48 419.18 421.02 420.22Q420.55 421.26 420.30 422.54L420.30 422.54Q419.98 424.30 420.18 425.86Q420.39 427.41 421.22 428.35Q422.06 429.30 423.59 429.30L423.59 429.30Q424.65 429.30 425.48 428.85Q426.31 428.40 426.98 427.86L426.98 427.86Q427.08 427.79 427.21 427.92Q427.34 428.05 427.24 428.14L427.24 428.14Q425.93 429.33 424.68 429.87Q423.43 430.42 422.25 430.42ZM431.75 430.29L431.75 430.29Q430.98 430.29 430.73 429.62Q430.47 428.94 430.82 427.15L430.82 427.15L432.14 420.50Q432.49 418.61 431.59 418.61L431.59 418.61Q431.24 418.61 430.65 418.99Q430.06 419.38 429.38 420.08L429.38 420.08Q429.29 420.21 429.14 420.06Q429.00 419.92 429.13 419.82L429.13 419.82Q430.22 418.58 431.11 417.97Q432.01 417.36 432.84 417.36L432.84 417.36Q433.64 417.36 433.86 418.05Q434.09 418.74 433.74 420.43L433.74 420.43L432.46 427.15Q432.26 428.11 432.42 428.56Q432.58 429.01 432.97 429.01L432.97 429.01Q433.32 429.01 433.90 428.64Q434.47 428.27 435.14 427.60L435.14 427.60Q435.27 427.47 435.40 427.60Q435.53 427.73 435.40 427.86L435.40 427.86Q434.34 429.04 433.46 429.66Q432.58 430.29 431.75 430.29ZM433.77 413.58L433.77 413.58Q433.13 413.58 432.76 413.23Q432.39 412.88 432.39 412.21L432.39 412.21Q432.39 411.60 432.76 411.25Q433.13 410.90 433.77 410.90L433.77 410.90Q434.44 410.90 434.78 411.25Q435.11 411.60 435.11 412.21L435.11 412.21Q435.11 413.58 433.77 413.58ZM438.76 430.42L438.76 430.42Q437.70 430.42 437.16 429.65Q436.62 428.88 436.84 427.09L436.84 427.09Q437.10 425.36 437.94 423.62Q438.79 421.87 440.02 420.43Q441.26 418.99 442.63 418.11Q444.01 417.23 445.26 417.23L445.26 417.23Q445.86 417.23 446.42 417.44Q446.98 417.65 447.40 418.14Q447.82 418.64 447.88 419.44L447.88 419.44L446.50 418.58Q446.92 418.51 447.45 418.05Q447.98 417.58 448.14 416.98L448.14 416.98Q448.20 416.88 448.38 416.91Q448.55 416.94 448.52 417.01L448.52 417.01L446.66 427.15Q446.34 429.01 447.14 429.01L447.14 429.01Q447.50 429.01 448.06 428.61Q448.62 428.21 449.26 427.54L449.26 427.54Q449.35 427.44 449.48 427.57Q449.61 427.70 449.51 427.79L449.51 427.79Q448.49 428.98 447.62 429.63Q446.76 430.29 445.93 430.29L445.93 430.29Q445.16 430.29 444.94 429.58Q444.71 428.88 445.03 427.15L445.03 427.15L445.80 422.67L446.34 422.13Q445.38 424.56 444.10 426.43Q442.82 428.30 441.45 429.36Q440.07 430.42 438.76 430.42ZM439.91 428.85L439.91 428.85Q440.81 428.85 441.77 428.14Q442.73 427.44 443.61 426.30Q444.49 425.17 445.14 423.81Q445.80 422.45 446.06 421.14L446.06 421.14Q446.31 419.95 445.83 419.15Q445.35 418.35 444.17 418.35L444.17 418.35Q443.05 418.38 441.90 419.36Q440.74 420.34 439.85 421.95Q438.95 423.57 438.63 425.65L438.63 425.65Q438.41 427.25 438.71 428.05Q439.02 428.85 439.91 428.85ZM452.97 430.29L452.97 430.29Q452.14 430.29 451.93 429.58Q451.72 428.88 452.01 427.15L452.01 427.15L455.18 410.19Q455.40 409.04 454.95 408.75Q454.50 408.46 453.06 409.17L453.06 409.17Q452.94 409.23 452.86 409.04Q452.78 408.85 452.90 408.82L452.90 408.82L457.03 406.80Q457.16 406.74 457.29 406.86Q457.42 406.99 457.38 407.06L457.38 407.06L453.67 427.15Q453.48 428.11 453.64 428.56Q453.80 429.01 454.18 429.01L454.18 429.01Q454.54 429.01 455.08 428.61Q455.62 428.21 456.30 427.54L456.30 427.54Q456.42 427.41 456.55 427.54Q456.68 427.66 456.55 427.79L456.55 427.79Q455.53 428.98 454.66 429.63Q453.80 430.29 452.97 430.29Z" fill="#ffffff" opacity="0.92"/>

  <!-- Right-aligned starburst divider + CHICAGO -->
  <g transform="translate(940.73,422.00)">
    <line x1="0" y1="-8" x2="0" y2="8" stroke="#ffffff" stroke-width="0.96" opacity="0.85"/>
    <line x1="-8" y1="0" x2="8" y2="0" stroke="#ffffff" stroke-width="0.96" opacity="0.85"/>
    <line x1="-5.6" y1="-5.6" x2="5.6" y2="5.6" stroke="#ffffff" stroke-width="0.587" opacity="0.6"/>
    <line x1="5.6" y1="-5.6" x2="-5.6" y2="5.6" stroke="#ffffff" stroke-width="0.587" opacity="0.6"/>
    <line x1="-2.133" y1="-7.733" x2="2.133" y2="7.733" stroke="#ffffff" stroke-width="0.32" opacity="0.4"/>
    <line x1="2.133" y1="-7.733" x2="-2.133" y2="7.733" stroke="#ffffff" stroke-width="0.32" opacity="0.4"/>
    <line x1="-7.733" y1="-2.133" x2="7.733" y2="2.133" stroke="#ffffff" stroke-width="0.32" opacity="0.4"/>
    <line x1="-7.733" y1="2.133" x2="7.733" y2="-2.133" stroke="#ffffff" stroke-width="0.32" opacity="0.4"/>
    <circle cx="0" cy="0" r="1.493" fill="#ffffff"/>
  </g>
  <path d="M975.47 430.22L975.47 430.22Q973.82 430.22 972.41 429.62Q971.00 429.01 969.96 427.93Q968.91 426.85 968.34 425.42Q967.77 423.99 967.77 422.37L967.77 422.37Q967.77 420.72 968.34 419.29Q968.91 417.86 969.96 416.79Q971.00 415.72 972.40 415.12Q973.80 414.51 975.45 414.51L975.45 414.51Q977.25 414.51 978.61 415.13Q979.98 415.74 981.03 416.80L981.03 416.80L979.60 418.23Q978.88 417.42 977.83 416.95Q976.79 416.49 975.45 416.49L975.45 416.49Q974.24 416.49 973.22 416.92Q972.21 417.35 971.46 418.14Q970.72 418.93 970.31 420.01Q969.90 421.09 969.90 422.37L969.90 422.37Q969.90 423.64 970.31 424.72Q970.72 425.80 971.46 426.59Q972.21 427.38 973.22 427.81Q974.24 428.24 975.45 428.24L975.45 428.24Q976.88 428.24 977.93 427.77Q978.99 427.29 979.71 426.48L979.71 426.48L981.14 427.89Q980.09 428.99 978.67 429.60Q977.25 430.22 975.47 430.22ZM992.74 430L990.67 430L990.67 414.73L992.74 414.73L992.74 430ZM1002.60 430L1000.53 430L1000.53 414.73L1002.60 414.73L1002.60 430ZM1001.04 423.05L992.08 423.05L992.08 421.16L1001.04 421.16L1001.04 423.05ZM1015.27 430L1013.21 430L1013.21 414.73L1015.27 414.73L1015.27 430ZM1032.81 430.22L1032.81 430.22Q1031.16 430.22 1029.75 429.62Q1028.35 429.01 1027.30 427.93Q1026.26 426.85 1025.68 425.42Q1025.11 423.99 1025.11 422.37L1025.11 422.37Q1025.11 420.72 1025.68 419.29Q1026.26 417.86 1027.30 416.79Q1028.35 415.72 1029.74 415.12Q1031.14 414.51 1032.79 414.51L1032.79 414.51Q1034.59 414.51 1035.96 415.13Q1037.32 415.74 1038.38 416.80L1038.38 416.80L1036.95 418.23Q1036.22 417.42 1035.18 416.95Q1034.13 416.49 1032.79 416.49L1032.79 416.49Q1031.58 416.49 1030.57 416.92Q1029.56 417.35 1028.81 418.14Q1028.06 418.93 1027.65 420.01Q1027.25 421.09 1027.25 422.37L1027.25 422.37Q1027.25 423.64 1027.65 424.72Q1028.06 425.80 1028.81 426.59Q1029.56 427.38 1030.57 427.81Q1031.58 428.24 1032.79 428.24L1032.79 428.24Q1034.22 428.24 1035.28 427.77Q1036.33 427.29 1037.06 426.48L1037.06 426.48L1038.49 427.89Q1037.43 428.99 1036.01 429.60Q1034.59 430.22 1032.81 430.22ZM1049.10 430L1046.90 430L1053.14 414.73L1054.64 414.73L1060.87 430L1058.62 430L1053.50 417.09L1054.27 417.09L1049.10 430ZM1057.90 426.55L1049.87 426.55L1049.87 424.74L1057.90 424.74L1057.90 426.55ZM1077.24 430.22L1077.24 430.22Q1075.63 430.22 1074.23 429.62Q1072.84 429.01 1071.79 427.93Q1070.75 426.85 1070.15 425.42Q1069.56 423.99 1069.56 422.34L1069.56 422.34Q1069.56 420.69 1070.15 419.27Q1070.75 417.86 1071.80 416.78Q1072.86 415.70 1074.28 415.11Q1075.70 414.51 1077.37 414.51L1077.37 414.51Q1079.20 414.51 1080.74 415.22Q1082.28 415.92 1083.31 417.24L1083.31 417.24L1081.88 418.67Q1081.15 417.61 1079.97 417.05Q1078.78 416.49 1077.37 416.49L1077.37 416.49Q1075.70 416.49 1074.41 417.24Q1073.12 417.99 1072.41 419.31Q1071.69 420.63 1071.69 422.34L1071.69 422.34Q1071.69 424.08 1072.42 425.40Q1073.15 426.72 1074.38 427.47Q1075.61 428.22 1077.19 428.22L1077.19 428.22Q1078.80 428.22 1079.98 427.60Q1081.15 426.99 1081.79 425.79Q1082.43 424.59 1082.43 422.85L1082.43 422.85L1083.68 423.75L1077.08 423.75L1077.08 421.86L1084.56 421.86L1084.56 422.17Q1084.56 424.83 1083.63 426.62Q1082.69 428.42 1081.03 429.32Q1079.37 430.22 1077.24 430.22ZM1101.29 430.22L1101.29 430.22Q1099.66 430.22 1098.25 429.62Q1096.84 429.01 1095.79 427.92Q1094.73 426.83 1094.15 425.40Q1093.57 423.97 1093.57 422.34L1093.57 422.34Q1093.57 420.69 1094.15 419.27Q1094.73 417.86 1095.78 416.78Q1096.82 415.70 1098.22 415.11Q1099.62 414.51 1101.24 414.51L1101.24 414.51Q1102.87 414.51 1104.27 415.11Q1105.67 415.70 1106.72 416.78Q1107.78 417.86 1108.37 419.29Q1108.97 420.72 1108.97 422.37L1108.97 422.37Q1108.97 423.99 1108.37 425.42Q1107.78 426.85 1106.73 427.93Q1105.69 429.01 1104.29 429.62Q1102.89 430.22 1101.29 430.22ZM1101.24 428.24L1101.24 428.24Q1102.89 428.24 1104.14 427.48Q1105.38 426.72 1106.11 425.39Q1106.83 424.06 1106.83 422.34L1106.83 422.34Q1106.83 421.07 1106.41 420.00Q1106.00 418.93 1105.25 418.14Q1104.50 417.35 1103.49 416.92Q1102.48 416.49 1101.24 416.49L1101.24 416.49Q1099.62 416.49 1098.37 417.24Q1097.13 417.99 1096.41 419.31Q1095.70 420.63 1095.70 422.34L1095.70 422.34Q1095.70 423.62 1096.11 424.71Q1096.51 425.80 1097.25 426.58Q1097.99 427.36 1099.01 427.80Q1100.03 428.24 1101.24 428.24Z" fill="#ffffff" opacity="0.88"/>
</svg>
