<svg width="1080" height="1080" viewBox="0 0 1080 1080" xmlns="http://www.w3.org/2000/svg">
  <defs>
    <linearGradient id="jp-gradient" x1="0%" y1="0%" x2="100%" y2="100%">
      <stop offset="0%" stop-color="#e0a520"/>
      <stop offset="20%" stop-color="#e8b020"/>
      <stop offset="45%" stop-color="#f0a830"/>
      <stop offset="70%" stop-color="#f09040"/>
      <stop offset="100%" stop-color="#ee8045"/>
    </linearGradient>
  </defs>
  <rect width="1080" height="1080" fill="url(#jp-gradient)"/>
  <path d="M568.52 317.73L568.52 317.73Q570.38 317.73 570.38 321.45Q570.38 325.17 568.52 325.17L568.52 325.17Q553.02 325.17 544.96 328.89Q536.90 332.61 534.42 341.91Q531.94 351.21 531.94 369.19L531.94 369.19L531.94 707.71Q531.94 777.15 497.53 816.21Q463.12 855.27 401.74 855.27L401.74 855.27Q378.80 855.27 363.61 845.66Q348.42 836.05 348.42 818.07L348.42 818.07Q348.42 806.91 355.86 796.68Q363.30 786.45 380.66 786.45L380.66 786.45Q395.54 786.45 403.60 794.82Q411.66 803.19 416.31 814.35Q420.96 825.51 424.99 833.88Q429.02 842.25 436.46 842.25L436.46 842.25Q449.48 842.25 455.68 821.48Q461.88 800.71 461.88 751.11L461.88 751.11L461.88 367.95Q461.88 349.97 458.16 340.98Q454.44 331.99 443.28 328.58Q432.12 325.17 409.80 325.17L409.80 325.17Q408.56 325.17 408.56 321.45Q408.56 317.73 409.80 317.73L409.80 317.73Q429.02 317.73 450.72 318.66Q472.42 319.59 495.98 319.59L495.98 319.59Q517.68 319.59 535.97 318.66Q554.26 317.73 568.52 317.73Z" fill="#ffffff"/>
  <g transform="translate(666.48,289.83)">
    <line x1="0" y1="-65.1" x2="0" y2="65.1" stroke="#ffffff" stroke-width="7.812" opacity="0.9"/>
    <line x1="-65.1" y1="0" x2="65.1" y2="0" stroke="#ffffff" stroke-width="7.812" opacity="0.9"/>
    <line x1="-45.57" y1="-45.57" x2="45.57" y2="45.57" stroke="#ffffff" stroke-width="4.774" opacity="0.65"/>
    <line x1="45.57" y1="-45.57" x2="-45.57" y2="45.57" stroke="#ffffff" stroke-width="4.774" opacity="0.65"/>
    <line x1="-17.36" y1="-62.93" x2="17.36" y2="62.93" stroke="#ffffff" stroke-width="2.604" opacity="0.4"/>
    <line x1="17.36" y1="-62.93" x2="-17.36" y2="62.93" stroke="#ffffff" stroke-width="2.604" opacity="0.4"/>
    <line x1="-62.93" y1="-17.36" x2="62.93" y2="17.36" stroke="#ffffff" stroke-width="2.604" opacity="0.4"/>
    <line x1="-62.93" y1="17.36" x2="62.93" y2="-17.36" stroke="#ffffff" stroke-width="2.604" opacity="0.4"/>
    <circle cx="0" cy="0" r="21.6" fill="#ffffff"/>
  </g>
</svg>
